{
	"asset":{
		"generator":"Khronos glTF Blender I/O v4.2.70",
		"version":"2.0"
	},
	"scene":0,
	"scenes":[
		{
			"name":"Scene",
			"nodes":[
				6
			]
		}
	],
	"nodes":[
		{
			"mesh":0,
			"name":"SM_BB_SpongeBobHouse_Body_02_MI_BKN_SpongebobHouse_02_0"
		},
		{
			"children":[
				0
			],
			"name":"SM_BB_SpongeBobHouse_Body_02",
			"rotation":[
				-0.70710688829422,
				0,
				0,
				0.7071066498756409
			],
			"scale":[
				100,
				99.99999237060547,
				99.99999237060547
			]
		},
		{
			"mesh":1,
			"name":"SM_BB_SpongeBobHouse_Leaves_02_MI_BKN_SpongebobHouse_Top_0"
		},
		{
			"children":[
				2
			],
			"name":"SM_BB_SpongeBobHouse_Leaves_02",
			"rotation":[
				-0.70710688829422,
				0,
				0,
				0.7071066498756409
			],
			"scale":[
				100,
				99.99999237060547,
				99.99999237060547
			],
			"translation":[
				-23.41729164123535,
				0,
				0
			]
		},
		{
			"children":[
				1,
				3
			],
			"name":"RootNode"
		},
		{
			"children":[
				4
			],
			"name":"Pineapple.fbx",
			"rotation":[
				0.70710688829422,
				0,
				0,
				0.7071066498756409
			],
			"scale":[
				0.009999999776482582,
				0.010000000707805157,
				0.010000000707805157
			]
		},
		{
			"children":[
				5
			],
			"name":"Sketchfab_model",
			"rotation":[
				-0.70710688829422,
				0,
				0,
				0.7071066498756409
			]
		}
	],
	"materials":[
		{
			"doubleSided":true,
			"name":"MI_BKN_SpongebobHouse_02",
			"pbrMetallicRoughness":{
				"baseColorTexture":{
					"index":0
				},
				"metallicFactor":0,
				"roughnessFactor":0.9329179525375366
			}
		},
		{
			"name":"MI_BKN_SpongebobHouse_Top",
			"pbrMetallicRoughness":{
				"baseColorTexture":{
					"index":1
				},
				"metallicFactor":0,
				"roughnessFactor":0.9329179525375366
			}
		}
	],
	"meshes":[
		{
			"name":"SM_BB_SpongeBobHouse_Body_02_MI_BKN_SpongebobHouse_02_0",
			"primitives":[
				{
					"attributes":{
						"POSITION":0,
						"NORMAL":1,
						"TEXCOORD_0":2,
						"TEXCOORD_1":3,
						"TEXCOORD_2":4
					},
					"indices":5,
					"material":0
				}
			]
		},
		{
			"name":"SM_BB_SpongeBobHouse_Leaves_02_MI_BKN_SpongebobHouse_Top_0",
			"primitives":[
				{
					"attributes":{
						"POSITION":6,
						"NORMAL":7,
						"TEXCOORD_0":8,
						"TEXCOORD_1":9
					},
					"indices":10,
					"material":1
				}
			]
		}
	],
	"textures":[
		{
			"sampler":0,
			"source":0
		},
		{
			"sampler":0,
			"source":1
		}
	],
	"images":[
		{
			"mimeType":"image/png",
			"name":"MI_BKN_SpongebobHouse_02_baseColor",
			"uri":"textures/MI_BKN_SpongebobHouse_02_baseColor.png"
		},
		{
			"mimeType":"image/png",
			"name":"MI_BKN_SpongebobHouse_Top_baseColor",
			"uri":"textures/MI_BKN_SpongebobHouse_Top_baseColor.png"
		}
	],
	"accessors":[
		{
			"bufferView":0,
			"componentType":5126,
			"count":7313,
			"max":[
				4.88071870803833,
				5.023176193237305,
				8.688197135925293
			],
			"min":[
				-5.031908988952637,
				-5.226973056793213,
				-1.8927001953125
			],
			"type":"VEC3"
		},
		{
			"bufferView":1,
			"componentType":5126,
			"count":7313,
			"type":"VEC3"
		},
		{
			"bufferView":2,
			"componentType":5126,
			"count":7313,
			"type":"VEC2"
		},
		{
			"bufferView":3,
			"componentType":5126,
			"count":7313,
			"type":"VEC2"
		},
		{
			"bufferView":4,
			"componentType":5126,
			"count":7313,
			"type":"VEC2"
		},
		{
			"bufferView":5,
			"componentType":5123,
			"count":35604,
			"type":"SCALAR"
		},
		{
			"bufferView":6,
			"componentType":5126,
			"count":2407,
			"max":[
				3.9375007152557373,
				3.918674945831299,
				14.317121505737305
			],
			"min":[
				-3.2867400646209717,
				-3.6184654235839844,
				8.167391777038574
			],
			"type":"VEC3"
		},
		{
			"bufferView":7,
			"componentType":5126,
			"count":2407,
			"type":"VEC3"
		},
		{
			"bufferView":8,
			"componentType":5126,
			"count":2407,
			"type":"VEC2"
		},
		{
			"bufferView":9,
			"componentType":5126,
			"count":2407,
			"type":"VEC2"
		},
		{
			"bufferView":10,
			"componentType":5123,
			"count":10848,
			"type":"SCALAR"
		}
	],
	"bufferViews":[
		{
			"buffer":0,
			"byteLength":87756,
			"byteOffset":0,
			"target":34962
		},
		{
			"buffer":0,
			"byteLength":87756,
			"byteOffset":87756,
			"target":34962
		},
		{
			"buffer":0,
			"byteLength":58504,
			"byteOffset":175512,
			"target":34962
		},
		{
			"buffer":0,
			"byteLength":58504,
			"byteOffset":234016,
			"target":34962
		},
		{
			"buffer":0,
			"byteLength":58504,
			"byteOffset":292520,
			"target":34962
		},
		{
			"buffer":0,
			"byteLength":71208,
			"byteOffset":351024,
			"target":34963
		},
		{
			"buffer":0,
			"byteLength":28884,
			"byteOffset":422232,
			"target":34962
		},
		{
			"buffer":0,
			"byteLength":28884,
			"byteOffset":451116,
			"target":34962
		},
		{
			"buffer":0,
			"byteLength":19256,
			"byteOffset":480000,
			"target":34962
		},
		{
			"buffer":0,
			"byteLength":19256,
			"byteOffset":499256,
			"target":34962
		},
		{
			"buffer":0,
			"byteLength":21696,
			"byteOffset":518512,
			"target":34963
		}
	],
	"samplers":[
		{
			"magFilter":9729,
			"minFilter":9987
		}
	],
	"buffers":[
		{
			"byteLength":540208,
			"uri":"scene.bin"
		}
	]
}
