{
  "accessors": [
    {
      "bufferView": 2,
      "componentType": 5126,
      "count": 7715,
      "max": [
        6.303401947021484,
        5.023176193237305,
        8.688197135925293
      ],
      "min": [
        -5.031908988952637,
        -5.226973056793213,
        -1.8927001953125
      ],
      "type": "VEC3"
    },
    {
      "bufferView": 2,
      "byteOffset": 92580,
      "componentType": 5126,
      "count": 7715,
      "max": [
        0.9999693632125854,
        1.0,
        1.0
      ],
      "min": [
        -0.9999690055847168,
        -1.0,
        -1.0
      ],
      "type": "VEC3"
    },
    {
      "bufferView": 1,
      "componentType": 5126,
      "count": 7715,
      "max": [
        0.99853515625,
        0.99658203125
      ],
      "min": [
        0.000499725341796875,
        0.0009765625
      ],
      "type": "VEC2"
    },
    {
      "bufferView": 1,
      "byteOffset": 61720,
      "componentType": 5126,
      "count": 7715,
      "max": [
        0.99169921875,
        0.9919357299804688
      ],
      "min": [
        0.00806427001953125,
        0.0185546875
      ],
      "type": "VEC2"
    },
    {
      "bufferView": 1,
      "byteOffset": 123440,
      "componentType": 5126,
      "count": 7715,
      "max": [
        0.9921875,
        0.9919357299804688
      ],
      "min": [
        0.00806427001953125,
        0.0185546875
      ],
      "type": "VEC2"
    },
    {
      "bufferView": 0,
      "componentType": 5125,
      "count": 37554,
      "type": "SCALAR"
    },
    {
      "bufferView": 2,
      "byteOffset": 185160,
      "componentType": 5126,
      "count": 2407,
      "max": [
        3.9375007152557373,
        3.918674945831299,
        14.317121505737305
      ],
      "min": [
        -3.2867400646209717,
        -3.6184654235839844,
        8.167391777038574
      ],
      "type": "VEC3"
    },
    {
      "bufferView": 2,
      "byteOffset": 214044,
      "componentType": 5126,
      "count": 2407,
      "max": [
        0.9973776340484619,
        0.9989457130432129,
        0.5277419686317444
      ],
      "min": [
        -0.9996903538703918,
        -1.0,
        -0.9995042085647583
      ],
      "type": "VEC3"
    },
    {
      "bufferView": 1,
      "byteOffset": 185160,
      "componentType": 5126,
      "count": 2407,
      "max": [
        0.96240234375,
        0.9878616333007813
      ],
      "min": [
        0.0268402099609375,
        0.01611328125
      ],
      "type": "VEC2"
    },
    {
      "bufferView": 1,
      "byteOffset": 204416,
      "componentType": 5126,
      "count": 2407,
      "max": [
        0.96240234375,
        0.9919357299804688
      ],
      "min": [
        0.00806427001953125,
        0.0107421875
      ],
      "type": "VEC2"
    },
    {
      "bufferView": 0,
      "byteOffset": 150216,
      "componentType": 5125,
      "count": 10848,
      "type": "SCALAR"
    }
  ],
  "asset": {
    "extras": {
      "author": "SMF Friends Fan 2024 YouTube Live (https://sketchfab.com/cherylhill28)",
      "license": "CC-BY-4.0 (http://creativecommons.org/licenses/by/4.0/)",
      "source": "https://sketchfab.com/3d-models/cosmic-shake-spongebob-pineapple-house-5b7cefc874704b36b8ae32e176b3bec3",
      "title": "Cosmic Shake-SpongeBob Pineapple House"
    },
    "generator": "Sketchfab-16.28.0",
    "version": "2.0"
  },
  "bufferViews": [
    {
      "buffer": 0,
      "byteLength": 193608,
      "name": "floatBufferViews",
      "target": 34963
    },
    {
      "buffer": 0,
      "byteLength": 223672,
      "byteOffset": 193608,
      "byteStride": 8,
      "name": "floatBufferViews",
      "target": 34962
    },
    {
      "buffer": 0,
      "byteLength": 242928,
      "byteOffset": 417280,
      "byteStride": 12,
      "name": "floatBufferViews",
      "target": 34962
    }
  ],
  "buffers": [
    {
      "byteLength": 660208,
      "uri": "scene.bin"
    }
  ],
  "images": [
    {
      "uri": "textures/MI_BKN_SpongebobHouse_02_baseColor.png"
    },
    {
      "uri": "textures/MI_BKN_SpongebobHouse_Top_baseColor.png"
    }
  ],
  "materials": [
    {
      "doubleSided": true,
      "name": "MI_BKN_SpongebobHouse_02",
      "pbrMetallicRoughness": {
        "baseColorTexture": {
          "index": 0
        },
        "metallicFactor": 0.0,
        "roughnessFactor": 0.9329179606750063
      }
    },
    {
      "name": "MI_BKN_SpongebobHouse_Top",
      "pbrMetallicRoughness": {
        "baseColorTexture": {
          "index": 1
        },
        "metallicFactor": 0.0,
        "roughnessFactor": 0.9329179606750063
      }
    }
  ],
  "meshes": [
    {
      "name": "SM_BB_SpongeBobHouse_Body_02_MI_BKN_SpongebobHouse_02_0",
      "primitives": [
        {
          "attributes": {
            "NORMAL": 1,
            "POSITION": 0,
            "TEXCOORD_0": 2,
            "TEXCOORD_1": 3,
            "TEXCOORD_2": 4
          },
          "indices": 5,
          "material": 0,
          "mode": 4
        }
      ]
    },
    {
      "name": "SM_BB_SpongeBobHouse_Leaves_02_MI_BKN_SpongebobHouse_Top_0",
      "primitives": [
        {
          "attributes": {
            "NORMAL": 7,
            "POSITION": 6,
            "TEXCOORD_0": 8,
            "TEXCOORD_1": 9
          },
          "indices": 10,
          "material": 1,
          "mode": 4
        }
      ]
    }
  ],
  "nodes": [
    {
      "children": [
        1
      ],
      "matrix": [
        1.0,
        0.0,
        0.0,
        0.0,
        0.0,
        2.220446049250313e-16,
        -1.0,
        0.0,
        0.0,
        1.0,
        2.220446049250313e-16,
        0.0,
        0.0,
        0.0,
        0.0,
        1.0
      ],
      "name": "Sketchfab_model"
    },
    {
      "children": [
        2
      ],
      "matrix": [
        0.009999999776482582,
        0.0,
        0.0,
        0.0,
        0.0,
        0.0,
        0.009999999776482582,
        0.0,
        0.0,
        -0.009999999776482582,
        0.0,
        0.0,
        0.0,
        0.0,
        0.0,
        1.0
      ],
      "name": "Pineapple.fbx"
    },
    {
      "children": [
        3,
        5
      ],
      "name": "RootNode"
    },
    {
      "children": [
        4
      ],
      "matrix": [
        100.0,
        0.0,
        0.0,
        0.0,
        0.0,
        -1.629206793918314e-05,
        -99.99999999999868,
        0.0,
        0.0,
        99.99999999999868,
        -1.629206793918314e-05,
        0.0,
        0.0,
        0.0,
        0.0,
        1.0
      ],
      "name": "SM_BB_SpongeBobHouse_Body_02"
    },
    {
      "mesh": 0,
      "name": "SM_BB_SpongeBobHouse_Body_02_MI_BKN_SpongebobHouse_02_0"
    },
    {
      "children": [
        6
      ],
      "matrix": [
        100.0,
        0.0,
        0.0,
        0.0,
        -0.0,
        -1.629206793918314e-05,
        -99.99999999999868,
        0.0,
        0.0,
        99.99999999999868,
        -1.629206793918314e-05,
        0.0,
        -23.417293548583984,
        0.0,
        0.0,
        1.0
      ],
      "name": "SM_BB_SpongeBobHouse_Leaves_02"
    },
    {
      "mesh": 1,
      "name": "SM_BB_SpongeBobHouse_Leaves_02_MI_BKN_SpongebobHouse_Top_0"
    }
  ],
  "samplers": [
    {
      "magFilter": 9729,
      "minFilter": 9987,
      "wrapS": 10497,
      "wrapT": 10497
    }
  ],
  "scene": 0,
  "scenes": [
    {
      "name": "Sketchfab_Scene",
      "nodes": [
        0
      ]
    }
  ],
  "textures": [
    {
      "sampler": 0,
      "source": 0
    },
    {
      "sampler": 0,
      "source": 1
    }
  ]
}
