{
  "accessors": [
    {
      "bufferView": 2,
      "componentType": 5126,
      "count": 2338,
      "max": [
        -52.845401763916016,
        342.7099914550781,
        78.07969665527344
      ],
      "min": [
        -79.21880340576172,
        322.8139953613281,
        10.0
      ],
      "type": "VEC3"
    },
    {
      "bufferView": 2,
      "byteOffset": 28056,
      "componentType": 5126,
      "count": 2338,
      "max": [
        1.0,
        1.0,
        1.0
      ],
      "min": [
        -1.0,
        -1.0,
        -1.0
      ],
      "type": "VEC3"
    },
    {
      "bufferView": 1,
      "componentType": 5126,
      "count": 2338,
      "max": [
        0.9700469970703125,
        0.9918749928474426
      ],
      "min": [
        0.010915599763393402,
        0.008423689752817154
      ],
      "type": "VEC2"
    },
    {
      "bufferView": 0,
      "componentType": 5125,
      "count": 8406,
      "type": "SCALAR"
    },
    {
      "bufferView": 2,
      "byteOffset": 56112,
      "componentType": 5126,
      "count": 2338,
      "max": [
        -46.029598236083984,
        373.9200134277344,
        78.0801010131836
      ],
      "min": [
        -71.10209655761719,
        348.71600341796875,
        10.0
      ],
      "type": "VEC3"
    },
    {
      "bufferView": 2,
      "byteOffset": 84168,
      "componentType": 5126,
      "count": 2338,
      "max": [
        0.9999380111694336,
        0.9983610510826111,
        1.0
      ],
      "min": [
        -0.9998760223388672,
        -0.9999380111694336,
        -1.0
      ],
      "type": "VEC3"
    },
    {
      "bufferView": 1,
      "byteOffset": 18704,
      "componentType": 5126,
      "count": 2338,
      "max": [
        0.9700469970703125,
        0.9918749928474426
      ],
      "min": [
        0.010915599763393402,
        0.008423689752817154
      ],
      "type": "VEC2"
    },
    {
      "bufferView": 0,
      "byteOffset": 33624,
      "componentType": 5125,
      "count": 8406,
      "type": "SCALAR"
    }
  ],
  "asset": {
    "extras": {
      "author": "SMF Friends Fan 2024 YouTube Live (https://sketchfab.com/cherylhill28)",
      "license": "CC-BY-4.0 (http://creativecommons.org/licenses/by/4.0/)",
      "source": "https://sketchfab.com/3d-models/tscp-building-02-47251e90c04c44ab97911e90018be626",
      "title": "TSCP - Building 02"
    },
    "generator": "Sketchfab-16.51.0",
    "version": "2.0"
  },
  "bufferViews": [
    {
      "buffer": 0,
      "byteLength": 67248,
      "name": "floatBufferViews",
      "target": 34963
    },
    {
      "buffer": 0,
      "byteLength": 37408,
      "byteOffset": 67248,
      "byteStride": 8,
      "name": "floatBufferViews",
      "target": 34962
    },
    {
      "buffer": 0,
      "byteLength": 112224,
      "byteOffset": 104656,
      "byteStride": 12,
      "name": "floatBufferViews",
      "target": 34962
    }
  ],
  "buffers": [
    {
      "byteLength": 216880,
      "uri": "scene.bin"
    }
  ],
  "images": [
    {
      "uri": "textures/Meshesbuilding1building1outlinetop1Mtl_baseColor.png"
    },
    {
      "uri": "textures/Meshesbuilding1building1outlinetop2Mtl_baseColor.png"
    }
  ],
  "materials": [
    {
      "name": "Meshesbuilding1building1outlinetop1Mtl",
      "pbrMetallicRoughness": {
        "baseColorTexture": {
          "index": 0
        },
        "metallicFactor": 0.0,
        "roughnessFactor": 0.6
      }
    },
    {
      "name": "Meshesbuilding1building1outlinetop2Mtl",
      "pbrMetallicRoughness": {
        "baseColorTexture": {
          "index": 1
        },
        "metallicFactor": 0.0,
        "roughnessFactor": 0.6
      }
    }
  ],
  "meshes": [
    {
      "name": "Object_0",
      "primitives": [
        {
          "attributes": {
            "NORMAL": 1,
            "POSITION": 0,
            "TEXCOORD_0": 2
          },
          "indices": 3,
          "material": 0,
          "mode": 4
        }
      ]
    },
    {
      "name": "Object_1",
      "primitives": [
        {
          "attributes": {
            "NORMAL": 5,
            "POSITION": 4,
            "TEXCOORD_0": 6
          },
          "indices": 7,
          "material": 1,
          "mode": 4
        }
      ]
    }
  ],
  "nodes": [
    {
      "children": [
        1
      ],
      "matrix": [
        1.0,
        0.0,
        0.0,
        0.0,
        0.0,
        2.220446049250313e-16,
        -1.0,
        0.0,
        0.0,
        1.0,
        2.220446049250313e-16,
        0.0,
        0.0,
        0.0,
        0.0,
        1.0
      ],
      "name": "Sketchfab_model"
    },
    {
      "children": [
        2,
        3
      ],
      "name": "Building 02.obj.cleaner.materialmerger.gles"
    },
    {
      "mesh": 0,
      "name": "Object_2"
    },
    {
      "mesh": 1,
      "name": "Object_3"
    }
  ],
  "samplers": [
    {
      "magFilter": 9729,
      "minFilter": 9987,
      "wrapS": 10497,
      "wrapT": 10497
    }
  ],
  "scene": 0,
  "scenes": [
    {
      "name": "Sketchfab_Scene",
      "nodes": [
        0
      ]
    }
  ],
  "textures": [
    {
      "sampler": 0,
      "source": 0
    },
    {
      "sampler": 0,
      "source": 1
    }
  ]
}
