{
  "accessors": [
    {
      "bufferView": 2,
      "componentType": 5126,
      "count": 7671,
      "max": [
        19.865299224853516,
        7.950689792633057,
        25.80109977722168
      ],
      "min": [
        -21.68910026550293,
        -6.844099998474121,
        1.0
      ],
      "type": "VEC3"
    },
    {
      "bufferView": 2,
      "byteOffset": 92052,
      "componentType": 5126,
      "count": 7671,
      "max": [
        1.0,
        1.0,
        1.0
      ],
      "min": [
        -1.0,
        -1.0,
        -1.0
      ],
      "type": "VEC3"
    },
    {
      "bufferView": 1,
      "componentType": 5126,
      "count": 7671,
      "max": [
        0.9684900045394897,
        0.9864770174026489
      ],
      "min": [
        0.020841499790549278,
        0.0467820018529892
      ],
      "type": "VEC2"
    },
    {
      "bufferView": 0,
      "componentType": 5125,
      "count": 33924,
      "type": "SCALAR"
    }
  ],
  "asset": {
    "extras": {
      "author": "SMF Friends Fan 2024 YouTube Live (https://sketchfab.com/cherylhill28)",
      "license": "CC-BY-4.0 (http://creativecommons.org/licenses/by/4.0/)",
      "source": "https://sketchfab.com/3d-models/bus-tscp-roblox-b9e5499f67894ecfb1c70e2ab4f452a7",
      "title": "Bus TSCP Roblox"
    },
    "generator": "Sketchfab-16.29.0",
    "version": "2.0"
  },
  "bufferViews": [
    {
      "buffer": 0,
      "byteLength": 135696,
      "name": "floatBufferViews",
      "target": 34963
    },
    {
      "buffer": 0,
      "byteLength": 61368,
      "byteOffset": 135696,
      "byteStride": 8,
      "name": "floatBufferViews",
      "target": 34962
    },
    {
      "buffer": 0,
      "byteLength": 184104,
      "byteOffset": 197064,
      "byteStride": 12,
      "name": "floatBufferViews",
      "target": 34962
    }
  ],
  "buffers": [
    {
      "byteLength": 381168,
      "uri": "scene.bin"
    }
  ],
  "images": [
    {
      "uri": "textures/Wheels1Mtl_baseColor.png"
    }
  ],
  "materials": [
    {
      "emissiveTexture": {
        "index": 0
      },
      "name": "Wheels1Mtl",
      "pbrMetallicRoughness": {
        "baseColorTexture": {
          "index": 0
        },
        "metallicFactor": 0.0
      }
    }
  ],
  "meshes": [
    {
      "name": "Object_0",
      "primitives": [
        {
          "attributes": {
            "NORMAL": 1,
            "POSITION": 0,
            "TEXCOORD_0": 2
          },
          "indices": 3,
          "material": 0,
          "mode": 4
        }
      ]
    }
  ],
  "nodes": [
    {
      "children": [
        1
      ],
      "matrix": [
        1.0,
        0.0,
        0.0,
        0.0,
        0.0,
        2.220446049250313e-16,
        -1.0,
        0.0,
        0.0,
        1.0,
        2.220446049250313e-16,
        0.0,
        0.0,
        0.0,
        0.0,
        1.0
      ],
      "name": "Sketchfab_model"
    },
    {
      "children": [
        2
      ],
      "name": "Bus_Rig.obj.cleaner.materialmerger.gles"
    },
    {
      "mesh": 0,
      "name": "Object_2"
    }
  ],
  "samplers": [
    {
      "magFilter": 9729,
      "minFilter": 9987,
      "wrapS": 10497,
      "wrapT": 10497
    }
  ],
  "scene": 0,
  "scenes": [
    {
      "name": "Sketchfab_Scene",
      "nodes": [
        0
      ]
    }
  ],
  "textures": [
    {
      "sampler": 0,
      "source": 0
    }
  ]
}
