{
  "accessors": [
    {
      "bufferView": 2,
      "componentType": 5126,
      "count": 624,
      "max": [
        49.52950668334961,
        49.52405548095703,
        126.68087005615234
      ],
      "min": [
        -49.52950668334961,
        -49.5240592956543,
        22.0210018157959
      ],
      "type": "VEC3"
    },
    {
      "bufferView": 2,
      "byteOffset": 7488,
      "componentType": 5126,
      "count": 624,
      "max": [
        0.9993499517440796,
        0.9993501901626587,
        0.9746029376983643
      ],
      "min": [
        -0.9993499517440796,
        -0.9993501901626587,
        -0.9746034145355225
      ],
      "type": "VEC3"
    },
    {
      "bufferView": 1,
      "componentType": 5126,
      "count": 624,
      "max": [
        1.0006918907165527,
        0.468709260225296
      ],
      "min": [
        -0.0007689485792070627,
        0.060813888907432556
      ],
      "type": "VEC2"
    },
    {
      "bufferView": 0,
      "componentType": 5125,
      "count": 3024,
      "type": "SCALAR"
    },
    {
      "bufferView": 2,
      "byteOffset": 14976,
      "componentType": 5126,
      "count": 851,
      "max": [
        48.08901596069336,
        48.0833740234375,
        146.73175048828125
      ],
      "min": [
        -48.08901596069336,
        -48.08338165283203,
        1.2476553916931152
      ],
      "type": "VEC3"
    },
    {
      "bufferView": 2,
      "byteOffset": 25188,
      "componentType": 5126,
      "count": 851,
      "max": [
        1.0,
        1.0,
        1.0
      ],
      "min": [
        -1.0,
        -1.0,
        -1.0
      ],
      "type": "VEC3"
    },
    {
      "bufferView": 3,
      "componentType": 5126,
      "count": 851,
      "max": [
        1.0,
        1.0,
        1.0,
        1.0
      ],
      "min": [
        -1.0,
        -1.0,
        -1.0,
        -1.0
      ],
      "type": "VEC4"
    },
    {
      "bufferView": 1,
      "byteOffset": 4992,
      "componentType": 5126,
      "count": 851,
      "max": [
        1.0006924867630005,
        0.8263516426086426
      ],
      "min": [
        -0.0007695485837757587,
        0.0005000001983717084
      ],
      "type": "VEC2"
    },
    {
      "bufferView": 0,
      "byteOffset": 12096,
      "componentType": 5125,
      "count": 3228,
      "type": "SCALAR"
    },
    {
      "bufferView": 2,
      "byteOffset": 35400,
      "componentType": 5126,
      "count": 1103,
      "max": [
        24.928131103515625,
        63.43497085571289,
        38.0866813659668
      ],
      "min": [
        -24.928131103515625,
        -24.879863739013672,
        -20.512422561645508
      ],
      "type": "VEC3"
    },
    {
      "bufferView": 2,
      "byteOffset": 48636,
      "componentType": 5126,
      "count": 1103,
      "max": [
        1.0,
        0.9999629855155945,
        1.0
      ],
      "min": [
        -1.0,
        -0.9998430609703064,
        -1.0
      ],
      "type": "VEC3"
    },
    {
      "bufferView": 1,
      "byteOffset": 11800,
      "componentType": 5126,
      "count": 1103,
      "max": [
        1.0227272510528564,
        1.0
      ],
      "min": [
        -0.022727131843566895,
        0.0
      ],
      "type": "VEC2"
    },
    {
      "bufferView": 0,
      "byteOffset": 25008,
      "componentType": 5125,
      "count": 3378,
      "type": "SCALAR"
    },
    {
      "bufferView": 2,
      "byteOffset": 61872,
      "componentType": 5126,
      "count": 773,
      "max": [
        24.928123474121094,
        24.973773956298828,
        37.889583587646484
      ],
      "min": [
        -24.928123474121094,
        -24.92681884765625,
        34.26769256591797
      ],
      "type": "VEC3"
    },
    {
      "bufferView": 2,
      "byteOffset": 71148,
      "componentType": 5126,
      "count": 773,
      "max": [
        1.0,
        0.9998430609703064,
        1.0
      ],
      "min": [
        -1.0,
        -0.9998430609703064,
        -1.0
      ],
      "type": "VEC3"
    },
    {
      "bufferView": 1,
      "byteOffset": 20624,
      "componentType": 5126,
      "count": 773,
      "max": [
        0.9949107766151428,
        0.4999999403953552
      ],
      "min": [
        0.005089282989501953,
        0.0
      ],
      "type": "VEC2"
    },
    {
      "bufferView": 0,
      "byteOffset": 38520,
      "componentType": 5125,
      "count": 4065,
      "type": "SCALAR"
    },
    {
      "bufferView": 2,
      "byteOffset": 80424,
      "componentType": 5126,
      "count": 1812,
      "max": [
        40.90038299560547,
        227.37112426757813,
        88.65648651123047
      ],
      "min": [
        -40.90035629272461,
        -30.277467727661133,
        1.3122730255126953
      ],
      "type": "VEC3"
    },
    {
      "bufferView": 2,
      "byteOffset": 102168,
      "componentType": 5126,
      "count": 1812,
      "max": [
        0.9998875260353088,
        0.9999803900718689,
        0.9877365231513977
      ],
      "min": [
        -0.9998871684074402,
        -0.9999799728393555,
        -0.9877364039421082
      ],
      "type": "VEC3"
    },
    {
      "bufferView": 1,
      "byteOffset": 26808,
      "componentType": 5126,
      "count": 1812,
      "max": [
        1.0227272510528564,
        1.0
      ],
      "min": [
        0.005089282989501953,
        0.0
      ],
      "type": "VEC2"
    },
    {
      "bufferView": 0,
      "byteOffset": 54780,
      "componentType": 5125,
      "count": 5760,
      "type": "SCALAR"
    },
    {
      "bufferView": 2,
      "byteOffset": 123912,
      "componentType": 5126,
      "count": 46,
      "max": [
        22.92801856994629,
        22.933971405029297,
        36.95207977294922
      ],
      "min": [
        -22.92801856994629,
        -22.933975219726563,
        36.9173583984375
      ],
      "type": "VEC3"
    },
    {
      "bufferView": 2,
      "byteOffset": 124464,
      "componentType": 5126,
      "count": 46,
      "max": [
        0.010640348307788372,
        3.1836553393560507e-09,
        1.0
      ],
      "min": [
        -0.007093781605362892,
        0.0,
        0.9999434351921082
      ],
      "type": "VEC3"
    },
    {
      "bufferView": 1,
      "byteOffset": 41304,
      "componentType": 5126,
      "count": 46,
      "max": [
        0.9500014781951904,
        0.9492573142051697
      ],
      "min": [
        0.04998813569545746,
        0.04995673894882202
      ],
      "type": "VEC2"
    },
    {
      "bufferView": 0,
      "byteOffset": 77820,
      "componentType": 5125,
      "count": 126,
      "type": "SCALAR"
    },
    {
      "bufferView": 2,
      "byteOffset": 125016,
      "componentType": 5126,
      "count": 405,
      "max": [
        22.699918746948242,
        107.809326171875,
        37.21741485595703
      ],
      "min": [
        -22.694416046142578,
        32.66613006591797,
        -14.106670379638672
      ],
      "type": "VEC3"
    },
    {
      "bufferView": 2,
      "byteOffset": 129876,
      "componentType": 5126,
      "count": 405,
      "max": [
        0.9998403191566467,
        0.08998052775859833,
        0.9999867677688599
      ],
      "min": [
        -0.999840497970581,
        -0.6072389483451843,
        -0.9979008436203003
      ],
      "type": "VEC3"
    },
    {
      "bufferView": 1,
      "byteOffset": 41672,
      "componentType": 5126,
      "count": 405,
      "max": [
        1.0227272510528564,
        1.0
      ],
      "min": [
        0.02272731065750122,
        0.0
      ],
      "type": "VEC2"
    },
    {
      "bufferView": 0,
      "byteOffset": 78324,
      "componentType": 5125,
      "count": 2112,
      "type": "SCALAR"
    },
    {
      "bufferView": 2,
      "byteOffset": 134736,
      "componentType": 5126,
      "count": 793,
      "max": [
        14.963786125183105,
        32.668365478515625,
        34.27134704589844
      ],
      "min": [
        -14.963175773620605,
        19.81766128540039,
        1.226827621459961
      ],
      "type": "VEC3"
    },
    {
      "bufferView": 2,
      "byteOffset": 144252,
      "componentType": 5126,
      "count": 793,
      "max": [
        1.0,
        0.9999660849571228,
        1.0
      ],
      "min": [
        -1.0,
        -1.0,
        -1.0
      ],
      "type": "VEC3"
    },
    {
      "bufferView": 1,
      "byteOffset": 44912,
      "componentType": 5126,
      "count": 793,
      "max": [
        0.9949107766151428,
        1.0
      ],
      "min": [
        0.005089312791824341,
        2.9802322387695313e-08
      ],
      "type": "VEC2"
    },
    {
      "bufferView": 0,
      "byteOffset": 86772,
      "componentType": 5125,
      "count": 3564,
      "type": "SCALAR"
    },
    {
      "bufferView": 2,
      "byteOffset": 153768,
      "componentType": 5126,
      "count": 1012,
      "max": [
        40.00088119506836,
        226.48556518554688,
        88.115966796875
      ],
      "min": [
        -40.00026321411133,
        94.45695495605469,
        -26.039302825927734
      ],
      "type": "VEC3"
    },
    {
      "bufferView": 2,
      "byteOffset": 165912,
      "componentType": 5126,
      "count": 1012,
      "max": [
        0.9999958872795105,
        0.995880126953125,
        0.8333863615989685
      ],
      "min": [
        -0.9999958872795105,
        -0.996913492679596,
        -0.9969778060913086
      ],
      "type": "VEC3"
    },
    {
      "bufferView": 1,
      "byteOffset": 51256,
      "componentType": 5126,
      "count": 1012,
      "max": [
        0.9949107766151428,
        1.0
      ],
      "min": [
        0.005089312791824341,
        2.9802322387695313e-08
      ],
      "type": "VEC2"
    },
    {
      "bufferView": 0,
      "byteOffset": 101028,
      "componentType": 5125,
      "count": 4752,
      "type": "SCALAR"
    },
    {
      "bufferView": 2,
      "byteOffset": 178056,
      "componentType": 5126,
      "count": 1902,
      "max": [
        40.36122131347656,
        226.8465576171875,
        84.58773040771484
      ],
      "min": [
        -40.36060333251953,
        20.37372589111328,
        -25.425216674804688
      ],
      "type": "VEC3"
    },
    {
      "bufferView": 2,
      "byteOffset": 200880,
      "componentType": 5126,
      "count": 1902,
      "max": [
        1.0,
        1.0,
        1.0
      ],
      "min": [
        -1.0,
        -0.9995160698890686,
        -1.0
      ],
      "type": "VEC3"
    },
    {
      "bufferView": 1,
      "byteOffset": 59352,
      "componentType": 5126,
      "count": 1902,
      "max": [
        1.0227272510528564,
        1.0
      ],
      "min": [
        0.005089312791824341,
        0.0
      ],
      "type": "VEC2"
    },
    {
      "bufferView": 0,
      "byteOffset": 120036,
      "componentType": 5125,
      "count": 9900,
      "type": "SCALAR"
    }
  ],
  "asset": {
    "extras": {
      "author": "Anthony Yanez (https://sketchfab.com/paulyanez)",
      "license": "CC-BY-4.0 (http://creativecommons.org/licenses/by/4.0/)",
      "source": "https://sketchfab.com/3d-models/alarm-clock-spongebob-b73962e648c649b7aab04e35d85eca32",
      "title": "Alarm Clock (SpongeBob)"
    },
    "generator": "Sketchfab-12.66.0",
    "version": "2.0"
  },
  "bufferViews": [
    {
      "buffer": 0,
      "byteLength": 159636,
      "name": "floatBufferViews",
      "target": 34963
    },
    {
      "buffer": 0,
      "byteLength": 74568,
      "byteOffset": 159636,
      "byteStride": 8,
      "name": "floatBufferViews",
      "target": 34962
    },
    {
      "buffer": 0,
      "byteLength": 223704,
      "byteOffset": 234204,
      "byteStride": 12,
      "name": "floatBufferViews",
      "target": 34962
    },
    {
      "buffer": 0,
      "byteLength": 13616,
      "byteOffset": 457908,
      "byteStride": 16,
      "name": "floatBufferViews",
      "target": 34962
    }
  ],
  "buffers": [
    {
      "byteLength": 471524,
      "uri": "scene.bin"
    }
  ],
  "images": [
    {
      "uri": "textures/05_-_Default_baseColor.jpeg"
    },
    {
      "uri": "textures/05_-_Default_normal.png"
    },
    {
      "uri": "textures/12_-_Default_baseColor.png"
    }
  ],
  "materials": [
    {
      "doubleSided": true,
      "name": "06_-_Default",
      "pbrMetallicRoughness": {
        "baseColorFactor": [
          0.0313726,
          0.0313726,
          0.0313726,
          1.0
        ],
        "metallicFactor": 0.7168181911,
        "roughnessFactor": 0.3256060514
      }
    },
    {
      "doubleSided": true,
      "name": "05_-_Default",
      "normalTexture": {
        "index": 1
      },
      "pbrMetallicRoughness": {
        "baseColorTexture": {
          "index": 0
        },
        "metallicFactor": 0.4986363729,
        "roughnessFactor": 0.8929713596
      }
    },
    {
      "doubleSided": true,
      "name": "17_-_Default",
      "pbrMetallicRoughness": {
        "baseColorFactor": [
          0.647059,
          0.0,
          0.0,
          1.0
        ],
        "roughnessFactor": 0.45893938469999995
      }
    },
    {
      "doubleSided": true,
      "name": "16_-_Default",
      "pbrMetallicRoughness": {
        "baseColorFactor": [
          0.886275,
          0.886275,
          0.886275,
          1.0
        ],
        "metallicFactor": 0.0,
        "roughnessFactor": 0.8929713596
      }
    },
    {
      "doubleSided": true,
      "name": "18_-_Default",
      "pbrMetallicRoughness": {
        "baseColorFactor": [
          0.415686,
          0.415686,
          0.415686,
          1.0
        ],
        "roughnessFactor": 0.45287877860000003
      }
    },
    {
      "doubleSided": true,
      "name": "12_-_Default",
      "pbrMetallicRoughness": {
        "baseColorTexture": {
          "index": 2
        },
        "metallicFactor": 0.3834848577,
        "roughnessFactor": 0.8929713596
      }
    },
    {
      "doubleSided": true,
      "name": "Material_357",
      "pbrMetallicRoughness": {
        "baseColorFactor": [
          0.588,
          0.588,
          0.588,
          1.0
        ],
        "roughnessFactor": 0.7074242332
      }
    },
    {
      "doubleSided": true,
      "name": "Material_356",
      "pbrMetallicRoughness": {
        "baseColorFactor": [
          0.588,
          0.588,
          0.588,
          1.0
        ],
        "metallicFactor": 0.0,
        "roughnessFactor": 0.8929713596
      }
    },
    {
      "doubleSided": true,
      "name": "Material_355",
      "pbrMetallicRoughness": {
        "baseColorFactor": [
          0.588,
          0.588,
          0.588,
          1.0
        ],
        "roughnessFactor": 0.5983333241
      }
    },
    {
      "doubleSided": true,
      "name": "22_-_Default",
      "pbrMetallicRoughness": {
        "baseColorFactor": [
          0.12549,
          0.12549,
          0.12549,
          1.0
        ],
        "roughnessFactor": 0.8929713596
      }
    }
  ],
  "meshes": [
    {
      "name": "Barrel_06 - Default_0",
      "primitives": [
        {
          "attributes": {
            "NORMAL": 1,
            "POSITION": 0,
            "TEXCOORD_0": 2
          },
          "indices": 3,
          "material": 0,
          "mode": 4
        }
      ]
    },
    {
      "name": "Barrel_05 - Default_0",
      "primitives": [
        {
          "attributes": {
            "NORMAL": 5,
            "POSITION": 4,
            "TANGENT": 6,
            "TEXCOORD_0": 7
          },
          "indices": 8,
          "material": 1,
          "mode": 4
        }
      ]
    },
    {
      "name": "Clock_17 - Default_0",
      "primitives": [
        {
          "attributes": {
            "NORMAL": 10,
            "POSITION": 9,
            "TEXCOORD_0": 11
          },
          "indices": 12,
          "material": 2,
          "mode": 4
        }
      ]
    },
    {
      "name": "Clock_16 - Default_0",
      "primitives": [
        {
          "attributes": {
            "NORMAL": 14,
            "POSITION": 13,
            "TEXCOORD_0": 15
          },
          "indices": 16,
          "material": 3,
          "mode": 4
        }
      ]
    },
    {
      "name": "Clock_18 - Default_0",
      "primitives": [
        {
          "attributes": {
            "NORMAL": 18,
            "POSITION": 17,
            "TEXCOORD_0": 19
          },
          "indices": 20,
          "material": 4,
          "mode": 4
        }
      ]
    },
    {
      "name": "Clock_12 - Default_0",
      "primitives": [
        {
          "attributes": {
            "NORMAL": 22,
            "POSITION": 21,
            "TEXCOORD_0": 23
          },
          "indices": 24,
          "material": 5,
          "mode": 4
        }
      ]
    },
    {
      "name": "Clock_Material #357_0",
      "primitives": [
        {
          "attributes": {
            "NORMAL": 26,
            "POSITION": 25,
            "TEXCOORD_0": 27
          },
          "indices": 28,
          "material": 6,
          "mode": 4
        }
      ]
    },
    {
      "name": "Clock_Material #356_0",
      "primitives": [
        {
          "attributes": {
            "NORMAL": 30,
            "POSITION": 29,
            "TEXCOORD_0": 31
          },
          "indices": 32,
          "material": 7,
          "mode": 4
        }
      ]
    },
    {
      "name": "Clock_Material #355_0",
      "primitives": [
        {
          "attributes": {
            "NORMAL": 34,
            "POSITION": 33,
            "TEXCOORD_0": 35
          },
          "indices": 36,
          "material": 8,
          "mode": 4
        }
      ]
    },
    {
      "name": "Clock_22 - Default_0",
      "primitives": [
        {
          "attributes": {
            "NORMAL": 38,
            "POSITION": 37,
            "TEXCOORD_0": 39
          },
          "indices": 40,
          "material": 9,
          "mode": 4
        }
      ]
    }
  ],
  "nodes": [
    {
      "children": [
        1
      ],
      "matrix": [
        1.0,
        0.0,
        0.0,
        0.0,
        0.0,
        2.220446049250313e-16,
        -1.0,
        0.0,
        0.0,
        1.0,
        2.220446049250313e-16,
        0.0,
        0.0,
        0.0,
        0.0,
        1.0
      ],
      "name": "Sketchfab_model"
    },
    {
      "children": [
        2
      ],
      "matrix": [
        1.0,
        0.0,
        0.0,
        0.0,
        0.0,
        0.0,
        1.0,
        0.0,
        0.0,
        -1.0,
        0.0,
        0.0,
        0.0,
        0.0,
        0.0,
        1.0
      ],
      "name": "Spongebob's Clock.FBX"
    },
    {
      "children": [
        3,
        6
      ],
      "name": "RootNode"
    },
    {
      "children": [
        4,
        5
      ],
      "matrix": [
        1.1832140684127808,
        0.0,
        0.0,
        0.0,
        0.0,
        2.6272630036245487e-16,
        -1.1832140684127808,
        0.0,
        0.0,
        1.0,
        2.220446049250313e-16,
        0.0,
        -431.2243957519531,
        -328.3070373535156,
        240.11099243164063,
        1.0
      ],
      "name": "Barrel"
    },
    {
      "mesh": 0,
      "name": "Barrel_06 - Default_0"
    },
    {
      "mesh": 1,
      "name": "Barrel_05 - Default_0"
    },
    {
      "children": [
        7
      ],
      "matrix": [
        1.3966749906539917,
        0.0,
        0.0,
        0.0,
        0.0,
        1.396674990653973,
        2.275472389871754e-07,
        0.0,
        0.0,
        -2.06090248945361e-07,
        1.2649729251861404,
        0.0,
        -431.22442626953125,
        -150.5275421142578,
        239.66905212402344,
        1.0
      ],
      "name": "Clock"
    },
    {
      "children": [
        8,
        9,
        10,
        11,
        12,
        13,
        14,
        15
      ],
      "matrix": [
        1.0,
        0.0,
        -0.0,
        0.0,
        0.0,
        1.0,
        0.0,
        0.0,
        0.0,
        0.0,
        1.0,
        0.0,
        0.0,
        2.5814144611358643,
        -16.096904754638672,
        1.0
      ],
      "name": "Object_7"
    },
    {
      "mesh": 2,
      "name": "Clock_17 - Default_0"
    },
    {
      "mesh": 3,
      "name": "Clock_16 - Default_0"
    },
    {
      "mesh": 4,
      "name": "Clock_18 - Default_0"
    },
    {
      "mesh": 5,
      "name": "Clock_12 - Default_0"
    },
    {
      "mesh": 6,
      "name": "Clock_Material #357_0"
    },
    {
      "mesh": 7,
      "name": "Clock_Material #356_0"
    },
    {
      "mesh": 8,
      "name": "Clock_Material #355_0"
    },
    {
      "mesh": 9,
      "name": "Clock_22 - Default_0"
    }
  ],
  "samplers": [
    {
      "magFilter": 9729,
      "minFilter": 9987,
      "wrapS": 10497,
      "wrapT": 10497
    }
  ],
  "scene": 0,
  "scenes": [
    {
      "name": "Sketchfab_Scene",
      "nodes": [
        0
      ]
    }
  ],
  "textures": [
    {
      "sampler": 0,
      "source": 0
    },
    {
      "sampler": 0,
      "source": 1
    },
    {
      "sampler": 0,
      "source": 2
    }
  ]
}
