{
  "accessors": [
    {
      "bufferView": 2,
      "componentType": 5126,
      "count": 318,
      "max": [
        150.0,
        72.99700164794922,
        489.76025390625
      ],
      "min": [
        -150.0,
        -75.30984497070313,
        9.89398193359375
      ],
      "type": "VEC3"
    },
    {
      "bufferView": 2,
      "byteOffset": 3816,
      "componentType": 5126,
      "count": 318,
      "max": [
        1.0,
        1.0,
        1.0
      ],
      "min": [
        -1.0,
        -1.0,
        -1.0
      ],
      "type": "VEC3"
    },
    {
      "bufferView": 1,
      "componentType": 5126,
      "count": 318,
      "max": [
        0.9999998807907104,
        1.148869276046753
      ],
      "min": [
        5.138010692462558e-07,
        -0.1488666832447052
      ],
      "type": "VEC2"
    },
    {
      "bufferView": 0,
      "componentType": 5125,
      "count": 936,
      "type": "SCALAR"
    },
    {
      "bufferView": 2,
      "byteOffset": 7632,
      "componentType": 5126,
      "count": 3495,
      "max": [
        166.2193603515625,
        408.5924072265625,
        484.0208435058594
      ],
      "min": [
        -166.2193603515625,
        -119.14360046386719,
        -29.480728149414063
      ],
      "type": "VEC3"
    },
    {
      "bufferView": 2,
      "byteOffset": 49572,
      "componentType": 5126,
      "count": 3495,
      "max": [
        1.0,
        1.0,
        0.9904493689537048
      ],
      "min": [
        -1.0,
        -1.0,
        -0.9950634241104126
      ],
      "type": "VEC3"
    },
    {
      "bufferView": 3,
      "componentType": 5126,
      "count": 3495,
      "max": [
        1.0,
        0.9998605847358704,
        1.0,
        1.0
      ],
      "min": [
        -1.0,
        -0.9998604655265808,
        -1.0,
        -1.0
      ],
      "type": "VEC4"
    },
    {
      "bufferView": 1,
      "byteOffset": 2544,
      "componentType": 5126,
      "count": 3495,
      "max": [
        1.0277777910232544,
        1.0
      ],
      "min": [
        0.0005000000237487257,
        0.0005000000237487257
      ],
      "type": "VEC2"
    },
    {
      "bufferView": 0,
      "byteOffset": 3744,
      "componentType": 5125,
      "count": 14544,
      "type": "SCALAR"
    },
    {
      "bufferView": 2,
      "byteOffset": 91512,
      "componentType": 5126,
      "count": 97,
      "max": [
        153.23074340820313,
        73.3504409790039,
        490.47918701171875
      ],
      "min": [
        -153.23544311523438,
        37.20420837402344,
        307.6243591308594
      ],
      "type": "VEC3"
    },
    {
      "bufferView": 2,
      "byteOffset": 92676,
      "componentType": 5126,
      "count": 97,
      "max": [
        0.9999971389770508,
        1.0,
        0.023718994110822678
      ],
      "min": [
        -0.999997079372406,
        -0.20013435184955597,
        -0.02672363445162773
      ],
      "type": "VEC3"
    },
    {
      "bufferView": 1,
      "byteOffset": 30504,
      "componentType": 5126,
      "count": 97,
      "max": [
        0.9802260994911194,
        0.9857174158096313
      ],
      "min": [
        0.0005000324454158545,
        0.014909349381923676
      ],
      "type": "VEC2"
    },
    {
      "bufferView": 0,
      "byteOffset": 61920,
      "componentType": 5125,
      "count": 432,
      "type": "SCALAR"
    },
    {
      "bufferView": 2,
      "byteOffset": 93840,
      "componentType": 5126,
      "count": 1180,
      "max": [
        154.2509765625,
        385.18743896484375,
        308.70062255859375
      ],
      "min": [
        -154.25567626953125,
        39.33875274658203,
        -21.547855377197266
      ],
      "type": "VEC3"
    },
    {
      "bufferView": 2,
      "byteOffset": 108000,
      "componentType": 5126,
      "count": 1180,
      "max": [
        1.0,
        1.0,
        1.0
      ],
      "min": [
        -1.0,
        -1.0,
        -1.0
      ],
      "type": "VEC3"
    },
    {
      "bufferView": 1,
      "byteOffset": 31280,
      "componentType": 5126,
      "count": 1180,
      "max": [
        1.0312153100967407,
        1.0005748271942139
      ],
      "min": [
        -0.0005748667754232883,
        -0.0005748638068325818
      ],
      "type": "VEC2"
    },
    {
      "bufferView": 0,
      "byteOffset": 63648,
      "componentType": 5125,
      "count": 4836,
      "type": "SCALAR"
    },
    {
      "bufferView": 2,
      "byteOffset": 122160,
      "componentType": 5126,
      "count": 1710,
      "max": [
        125.56639862060547,
        190.2709197998047,
        110.57501983642578
      ],
      "min": [
        -125.56639862060547,
        71.93490600585938,
        7.223991394042969
      ],
      "type": "VEC3"
    },
    {
      "bufferView": 2,
      "byteOffset": 142680,
      "componentType": 5126,
      "count": 1710,
      "max": [
        1.0,
        0.9962497353553772,
        0.9982964992523193
      ],
      "min": [
        -1.0,
        -0.9962496161460876,
        -0.9982965588569641
      ],
      "type": "VEC3"
    },
    {
      "bufferView": 1,
      "byteOffset": 40720,
      "componentType": 5126,
      "count": 1710,
      "max": [
        1.0277777910232544,
        1.0142590999603271
      ],
      "min": [
        -0.03902462497353554,
        -0.01425904780626297
      ],
      "type": "VEC2"
    },
    {
      "bufferView": 0,
      "byteOffset": 82992,
      "componentType": 5125,
      "count": 6360,
      "type": "SCALAR"
    },
    {
      "bufferView": 2,
      "byteOffset": 163200,
      "componentType": 5126,
      "count": 2132,
      "max": [
        139.7916259765625,
        386.0333557128906,
        19.183334350585938
      ],
      "min": [
        -139.79161071777344,
        106.45011901855469,
        -24.943008422851563
      ],
      "type": "VEC3"
    },
    {
      "bufferView": 2,
      "byteOffset": 188784,
      "componentType": 5126,
      "count": 2132,
      "max": [
        0.9951257705688477,
        0.9951255917549133,
        0.9998587965965271
      ],
      "min": [
        -0.9951257705688477,
        -0.9951249361038208,
        -0.9998587965965271
      ],
      "type": "VEC3"
    },
    {
      "bufferView": 1,
      "byteOffset": 54400,
      "componentType": 5126,
      "count": 2132,
      "max": [
        1.0312153100967407,
        0.9920952320098877
      ],
      "min": [
        0.007904868572950363,
        0.007904870435595512
      ],
      "type": "VEC2"
    },
    {
      "bufferView": 0,
      "byteOffset": 108432,
      "componentType": 5125,
      "count": 9216,
      "type": "SCALAR"
    },
    {
      "bufferView": 2,
      "byteOffset": 214368,
      "componentType": 5126,
      "count": 904,
      "max": [
        157.20538330078125,
        443.58709716796875,
        12.938650131225586
      ],
      "min": [
        -157.20538330078125,
        311.5184326171875,
        -18.698379516601563
      ],
      "type": "VEC3"
    },
    {
      "bufferView": 2,
      "byteOffset": 225216,
      "componentType": 5126,
      "count": 904,
      "max": [
        0.9998821020126343,
        1.0,
        0.9879313111305237
      ],
      "min": [
        -0.9998821020126343,
        -0.99662184715271,
        -0.9879310131072998
      ],
      "type": "VEC3"
    },
    {
      "bufferView": 1,
      "byteOffset": 71456,
      "componentType": 5126,
      "count": 904,
      "max": [
        1.1620830297470093,
        1.1814441680908203
      ],
      "min": [
        -0.16208234429359436,
        -0.18144412338733673
      ],
      "type": "VEC2"
    },
    {
      "bufferView": 0,
      "byteOffset": 145296,
      "componentType": 5125,
      "count": 2568,
      "type": "SCALAR"
    }
  ],
  "asset": {
    "extras": {
      "author": "Anthony Yanez (https://sketchfab.com/paulyanez)",
      "license": "CC-BY-4.0 (http://creativecommons.org/licenses/by/4.0/)",
      "source": "https://sketchfab.com/3d-models/spongebobs-bed-b22453185dfd4cf6986cc22bc600d4fc",
      "title": "Spongebob's Bed"
    },
    "generator": "Sketchfab-12.66.0",
    "version": "2.0"
  },
  "bufferViews": [
    {
      "buffer": 0,
      "byteLength": 155568,
      "name": "floatBufferViews",
      "target": 34963
    },
    {
      "buffer": 0,
      "byteLength": 78688,
      "byteOffset": 155568,
      "byteStride": 8,
      "name": "floatBufferViews",
      "target": 34962
    },
    {
      "buffer": 0,
      "byteLength": 236064,
      "byteOffset": 234256,
      "byteStride": 12,
      "name": "floatBufferViews",
      "target": 34962
    },
    {
      "buffer": 0,
      "byteLength": 55920,
      "byteOffset": 470320,
      "byteStride": 16,
      "name": "floatBufferViews",
      "target": 34962
    }
  ],
  "buffers": [
    {
      "byteLength": 526240,
      "uri": "scene.bin"
    }
  ],
  "images": [
    {
      "uri": "textures/03_-_Default_baseColor.jpeg"
    },
    {
      "uri": "textures/03_-_Default_normal.png"
    },
    {
      "uri": "textures/10_-_Default_baseColor.png"
    }
  ],
  "materials": [
    {
      "doubleSided": true,
      "name": "02_-_Default",
      "pbrMetallicRoughness": {
        "baseColorFactor": [
          0.294118,
          0.513726,
          0.862745,
          1.0
        ],
        "metallicFactor": 0.0,
        "roughnessFactor": 0.8929713596497552
      }
    },
    {
      "doubleSided": true,
      "name": "03_-_Default",
      "normalTexture": {
        "index": 1
      },
      "pbrMetallicRoughness": {
        "baseColorTexture": {
          "index": 0
        },
        "metallicFactor": 0.0,
        "roughnessFactor": 0.8929713596497552
      }
    },
    {
      "doubleSided": true,
      "name": "10_-_Default",
      "pbrMetallicRoughness": {
        "baseColorTexture": {
          "index": 2
        },
        "metallicFactor": 0.0,
        "roughnessFactor": 0.8929713596497552
      }
    },
    {
      "doubleSided": true,
      "name": "09_-_Default",
      "pbrMetallicRoughness": {
        "baseColorFactor": [
          0.0862745,
          0.0,
          0.105882,
          1.0
        ],
        "metallicFactor": 0.0,
        "roughnessFactor": 0.8929713596497552
      }
    },
    {
      "doubleSided": true,
      "name": "04_-_Default",
      "pbrMetallicRoughness": {
        "baseColorFactor": [
          0.65098,
          0.737255,
          0.85098,
          1.0
        ],
        "metallicFactor": 0.0,
        "roughnessFactor": 0.8929713596497552
      }
    },
    {
      "doubleSided": true,
      "name": "08_-_Default",
      "pbrMetallicRoughness": {
        "baseColorFactor": [
          0.0,
          0.2901959999999999,
          0.09411769999999994,
          1.0
        ],
        "metallicFactor": 0.638030312278054,
        "roughnessFactor": 0.4286363543886127
      }
    },
    {
      "doubleSided": true,
      "name": "07_-_Default",
      "pbrMetallicRoughness": {
        "baseColorFactor": [
          0.0392157,
          0.0392157,
          0.0392157,
          1.0
        ],
        "metallicFactor": 0.7046969789447206,
        "roughnessFactor": 0.8929713596497552
      }
    }
  ],
  "meshes": [
    {
      "name": "Bed_02 - Default_0",
      "primitives": [
        {
          "attributes": {
            "NORMAL": 1,
            "POSITION": 0,
            "TEXCOORD_0": 2
          },
          "indices": 3,
          "material": 0,
          "mode": 4
        }
      ]
    },
    {
      "name": "Bed_03 - Default_0",
      "primitives": [
        {
          "attributes": {
            "NORMAL": 5,
            "POSITION": 4,
            "TANGENT": 6,
            "TEXCOORD_0": 7
          },
          "indices": 8,
          "material": 1,
          "mode": 4
        }
      ]
    },
    {
      "name": "Bed_10 - Default_0",
      "primitives": [
        {
          "attributes": {
            "NORMAL": 10,
            "POSITION": 9,
            "TEXCOORD_0": 11
          },
          "indices": 12,
          "material": 2,
          "mode": 4
        }
      ]
    },
    {
      "name": "Bed_09 - Default_0",
      "primitives": [
        {
          "attributes": {
            "NORMAL": 14,
            "POSITION": 13,
            "TEXCOORD_0": 15
          },
          "indices": 16,
          "material": 3,
          "mode": 4
        }
      ]
    },
    {
      "name": "Bed_04 - Default_0",
      "primitives": [
        {
          "attributes": {
            "NORMAL": 18,
            "POSITION": 17,
            "TEXCOORD_0": 19
          },
          "indices": 20,
          "material": 4,
          "mode": 4
        }
      ]
    },
    {
      "name": "Bed_08 - Default_0",
      "primitives": [
        {
          "attributes": {
            "NORMAL": 22,
            "POSITION": 21,
            "TEXCOORD_0": 23
          },
          "indices": 24,
          "material": 5,
          "mode": 4
        }
      ]
    },
    {
      "name": "Bed_07 - Default_0",
      "primitives": [
        {
          "attributes": {
            "NORMAL": 26,
            "POSITION": 25,
            "TEXCOORD_0": 27
          },
          "indices": 28,
          "material": 6,
          "mode": 4
        }
      ]
    }
  ],
  "nodes": [
    {
      "children": [
        1
      ],
      "matrix": [
        1.0,
        0.0,
        0.0,
        0.0,
        0.0,
        2.220446049250313e-16,
        -1.0,
        0.0,
        0.0,
        1.0,
        2.220446049250313e-16,
        0.0,
        0.0,
        0.0,
        0.0,
        1.0
      ],
      "name": "Sketchfab_model"
    },
    {
      "children": [
        2
      ],
      "matrix": [
        1.0,
        0.0,
        0.0,
        0.0,
        0.0,
        0.0,
        1.0,
        0.0,
        0.0,
        -1.0,
        0.0,
        0.0,
        0.0,
        0.0,
        0.0,
        1.0
      ],
      "name": "Spongebob's Bed.FBX"
    },
    {
      "children": [
        3
      ],
      "name": "RootNode"
    },
    {
      "children": [
        4
      ],
      "matrix": [
        0.9999999999999996,
        1.824865621160525e-24,
        -2.9802322387695306e-08,
        0.0,
        -2.250012808125162e-15,
        0.9999999999999971,
        -7.549790170813245e-08,
        0.0,
        2.6175921874482728e-08,
        6.631118042046939e-08,
        0.8783181905746431,
        0.0,
        0.0,
        0.0,
        0.0,
        1.0
      ],
      "name": "Bed"
    },
    {
      "children": [
        5,
        6,
        7,
        8,
        9,
        10,
        11
      ],
      "matrix": [
        1.0,
        0.0,
        -0.0,
        0.0,
        0.0,
        1.0,
        0.0,
        0.0,
        0.0,
        0.0,
        1.0,
        0.0,
        0.0,
        2.7782516553997993e-07,
        -250.0,
        1.0
      ],
      "name": "Object_4"
    },
    {
      "mesh": 0,
      "name": "Bed_02 - Default_0"
    },
    {
      "mesh": 1,
      "name": "Bed_03 - Default_0"
    },
    {
      "mesh": 2,
      "name": "Bed_10 - Default_0"
    },
    {
      "mesh": 3,
      "name": "Bed_09 - Default_0"
    },
    {
      "mesh": 4,
      "name": "Bed_04 - Default_0"
    },
    {
      "mesh": 5,
      "name": "Bed_08 - Default_0"
    },
    {
      "mesh": 6,
      "name": "Bed_07 - Default_0"
    }
  ],
  "samplers": [
    {
      "magFilter": 9729,
      "minFilter": 9987,
      "wrapS": 10497,
      "wrapT": 10497
    }
  ],
  "scene": 0,
  "scenes": [
    {
      "name": "Sketchfab_Scene",
      "nodes": [
        0
      ]
    }
  ],
  "textures": [
    {
      "sampler": 0,
      "source": 0
    },
    {
      "sampler": 0,
      "source": 1
    },
    {
      "sampler": 0,
      "source": 2
    }
  ]
}
