{
	"asset":{
		"generator":"Khronos glTF Blender I/O v4.2.70",
		"version":"2.0"
	},
	"scene":0,
	"scenes":[
		{
			"name":"Scene",
			"nodes":[
				2
			]
		}
	],
	"nodes":[
		{
			"mesh":0,
			"name":"Object_2",
			"translation":[
				302.2220153808594,
				-208.46377563476562,
				-35.89237594604492
			]
		},
		{
			"children":[
				0
			],
			"name":"bus.obj.cleaner.materialmerger.gles"
		},
		{
			"children":[
				1
			],
			"name":"Sketchfab_model",
			"rotation":[
				-0.70710688829422,
				0,
				0,
				0.7071066498756409
			],
			"translation":[
				2.9822139739990234,
				2.1659774780273438,
				-9.250762939453125
			]
		}
	],
	"materials":[
		{
			"name":"Glass1Mtl",
			"pbrMetallicRoughness":{
				"baseColorTexture":{
					"index":0
				},
				"metallicFactor":0,
				"roughnessFactor":0.6000000238418579
			}
		}
	],
	"meshes":[
		{
			"name":"Object_0",
			"primitives":[
				{
					"attributes":{
						"POSITION":0,
						"NORMAL":1,
						"TEXCOORD_0":2
					},
					"indices":3,
					"material":0
				}
			]
		}
	],
	"textures":[
		{
			"sampler":0,
			"source":0
		}
	],
	"images":[
		{
			"mimeType":"image/png",
			"name":"Glass1Mtl_baseColor",
			"uri":"textures/Glass1Mtl_baseColor.png"
		}
	],
	"accessors":[
		{
			"bufferView":0,
			"componentType":5126,
			"count":7210,
			"max":[
				-286.58660888671875,
				217.90199279785156,
				52.959800720214844
			],
			"min":[
				-318.5010070800781,
				203.10800170898438,
				36.440101623535156
			],
			"type":"VEC3"
		},
		{
			"bufferView":1,
			"componentType":5126,
			"count":7210,
			"type":"VEC3"
		},
		{
			"bufferView":2,
			"componentType":5126,
			"count":7210,
			"type":"VEC2"
		},
		{
			"bufferView":3,
			"componentType":5123,
			"count":30246,
			"type":"SCALAR"
		}
	],
	"bufferViews":[
		{
			"buffer":0,
			"byteLength":86520,
			"byteOffset":0,
			"target":34962
		},
		{
			"buffer":0,
			"byteLength":86520,
			"byteOffset":86520,
			"target":34962
		},
		{
			"buffer":0,
			"byteLength":57680,
			"byteOffset":173040,
			"target":34962
		},
		{
			"buffer":0,
			"byteLength":60492,
			"byteOffset":230720,
			"target":34963
		}
	],
	"samplers":[
		{
			"magFilter":9729,
			"minFilter":9987
		}
	],
	"buffers":[
		{
			"byteLength":291212,
			"uri":"scene.bin"
		}
	]
}
