{
  "accessors": [
    {
      "bufferView": 2,
      "componentType": 5126,
      "count": 66,
      "max": [
        0.0732397511601448,
        0.14536459743976593,
        0.1485760658979416
      ],
      "min": [
        -0.07267040014266968,
        0.12434402853250504,
        0.1301872730255127
      ],
      "type": "VEC3"
    },
    {
      "bufferView": 2,
      "byteOffset": 792,
      "componentType": 5126,
      "count": 66,
      "max": [
        0.9875499606132507,
        0.9791672229766846,
        0.9053557515144348
      ],
      "min": [
        -0.9576930999755859,
        -0.7496625781059265,
        -0.914097011089325
      ],
      "type": "VEC3"
    },
    {
      "bufferView": 1,
      "componentType": 5126,
      "count": 66,
      "max": [
        0.999803364276886,
        0.9999571442604065
      ],
      "min": [
        0.0002517059911042452,
        0.1922016143798828
      ],
      "type": "VEC2"
    },
    {
      "bufferView": 1,
      "byteOffset": 528,
      "componentType": 5126,
      "count": 66,
      "max": [
        0.999803364276886,
        0.9999571442604065
      ],
      "min": [
        0.0002517059911042452,
        0.1922016143798828
      ],
      "type": "VEC2"
    },
    {
      "bufferView": 1,
      "byteOffset": 1056,
      "componentType": 5126,
      "count": 66,
      "max": [
        0.999803364276886,
        0.9999571442604065
      ],
      "min": [
        0.0002517059911042452,
        0.1922016143798828
      ],
      "type": "VEC2"
    },
    {
      "bufferView": 0,
      "componentType": 5125,
      "count": 126,
      "type": "SCALAR"
    },
    {
      "bufferView": 2,
      "byteOffset": 1584,
      "componentType": 5126,
      "count": 120,
      "max": [
        -0.01971660926938057,
        0.36244437098503113,
        0.16264492273330688
      ],
      "min": [
        -0.07389610260725021,
        0.27761510014533997,
        0.08354821801185608
      ],
      "type": "VEC3"
    },
    {
      "bufferView": 2,
      "byteOffset": 3024,
      "componentType": 5126,
      "count": 120,
      "max": [
        0.9524429440498352,
        0.8988533616065979,
        0.8339242339134216
      ],
      "min": [
        -0.9355649352073669,
        -0.7712715268135071,
        -0.7745249271392822
      ],
      "type": "VEC3"
    },
    {
      "bufferView": 1,
      "byteOffset": 1584,
      "componentType": 5126,
      "count": 120,
      "max": [
        0.6809151768684387,
        0.9996529817581177
      ],
      "min": [
        0.0002801950031425804,
        0.00011366605758666992
      ],
      "type": "VEC2"
    },
    {
      "bufferView": 1,
      "byteOffset": 2544,
      "componentType": 5126,
      "count": 120,
      "max": [
        0.6809151768684387,
        0.9996529817581177
      ],
      "min": [
        0.0002801950031425804,
        0.00011366605758666992
      ],
      "type": "VEC2"
    },
    {
      "bufferView": 1,
      "byteOffset": 3504,
      "componentType": 5126,
      "count": 120,
      "max": [
        0.6809151768684387,
        0.9996529817581177
      ],
      "min": [
        0.0002801950031425804,
        0.00011366605758666992
      ],
      "type": "VEC2"
    },
    {
      "bufferView": 0,
      "byteOffset": 504,
      "componentType": 5125,
      "count": 276,
      "type": "SCALAR"
    },
    {
      "bufferView": 2,
      "byteOffset": 4464,
      "componentType": 5126,
      "count": 932,
      "max": [
        0.2749261260032654,
        -0.1389313042163849,
        0.2874528169631958
      ],
      "min": [
        -0.26738041639328003,
        -0.3410148322582245,
        -0.2634108364582062
      ],
      "type": "VEC3"
    },
    {
      "bufferView": 2,
      "byteOffset": 15648,
      "componentType": 5126,
      "count": 932,
      "max": [
        0.9995393753051758,
        0.9980235695838928,
        0.9998984932899475
      ],
      "min": [
        -0.9968045949935913,
        -0.9971712231636047,
        -0.999713659286499
      ],
      "type": "VEC3"
    },
    {
      "bufferView": 1,
      "byteOffset": 4464,
      "componentType": 5126,
      "count": 932,
      "max": [
        0.9544026255607605,
        0.999925971031189
      ],
      "min": [
        0.0003804780135396868,
        1.9788742065429688e-05
      ],
      "type": "VEC2"
    },
    {
      "bufferView": 1,
      "byteOffset": 11920,
      "componentType": 5126,
      "count": 932,
      "max": [
        0.9544026255607605,
        0.999925971031189
      ],
      "min": [
        0.0003804780135396868,
        1.9788742065429688e-05
      ],
      "type": "VEC2"
    },
    {
      "bufferView": 1,
      "byteOffset": 19376,
      "componentType": 5126,
      "count": 932,
      "max": [
        0.9544026255607605,
        0.999925971031189
      ],
      "min": [
        0.0003804780135396868,
        1.9788742065429688e-05
      ],
      "type": "VEC2"
    },
    {
      "bufferView": 0,
      "byteOffset": 1608,
      "componentType": 5125,
      "count": 1857,
      "type": "SCALAR"
    },
    {
      "bufferView": 2,
      "byteOffset": 26832,
      "componentType": 5126,
      "count": 519,
      "max": [
        0.19336412847042084,
        0.3546479046344757,
        0.1769983321428299
      ],
      "min": [
        -0.18084745109081268,
        0.19780056178569794,
        0.022349808365106583
      ],
      "type": "VEC3"
    },
    {
      "bufferView": 2,
      "byteOffset": 33060,
      "componentType": 5126,
      "count": 519,
      "max": [
        0.997912585735321,
        0.9788580536842346,
        0.9842455983161926
      ],
      "min": [
        -0.9785069823265076,
        -0.998379647731781,
        -0.9872113466262817
      ],
      "type": "VEC3"
    },
    {
      "bufferView": 1,
      "byteOffset": 26832,
      "componentType": 5126,
      "count": 519,
      "max": [
        0.7846283912658691,
        0.9996130466461182
      ],
      "min": [
        0.000612459029071033,
        0.00038695335388183594
      ],
      "type": "VEC2"
    },
    {
      "bufferView": 1,
      "byteOffset": 30984,
      "componentType": 5126,
      "count": 519,
      "max": [
        0.7846283912658691,
        0.9996130466461182
      ],
      "min": [
        0.000612459029071033,
        0.00038695335388183594
      ],
      "type": "VEC2"
    },
    {
      "bufferView": 1,
      "byteOffset": 35136,
      "componentType": 5126,
      "count": 519,
      "max": [
        0.7846283912658691,
        0.9996130466461182
      ],
      "min": [
        0.000612459029071033,
        0.00038695335388183594
      ],
      "type": "VEC2"
    },
    {
      "bufferView": 0,
      "byteOffset": 9036,
      "componentType": 5125,
      "count": 2454,
      "type": "SCALAR"
    },
    {
      "bufferView": 2,
      "byteOffset": 39288,
      "componentType": 5126,
      "count": 2085,
      "max": [
        0.26217854022979736,
        0.3980051577091217,
        0.3667978048324585
      ],
      "min": [
        -0.262201726436615,
        -0.33448833227157593,
        -0.2621181607246399
      ],
      "type": "VEC3"
    },
    {
      "bufferView": 2,
      "byteOffset": 64308,
      "componentType": 5126,
      "count": 2085,
      "max": [
        0.9991983771324158,
        0.9973586201667786,
        0.999894380569458
      ],
      "min": [
        -0.9999174475669861,
        -0.9999892115592957,
        -0.9997450113296509
      ],
      "type": "VEC3"
    },
    {
      "bufferView": 1,
      "byteOffset": 39288,
      "componentType": 5126,
      "count": 2085,
      "max": [
        0.9306781888008118,
        0.999666154384613
      ],
      "min": [
        0.0005595179973170161,
        0.0005788803100585938
      ],
      "type": "VEC2"
    },
    {
      "bufferView": 1,
      "byteOffset": 55968,
      "componentType": 5126,
      "count": 2085,
      "max": [
        0.9306781888008118,
        0.999666154384613
      ],
      "min": [
        0.0005595179973170161,
        0.0005788803100585938
      ],
      "type": "VEC2"
    },
    {
      "bufferView": 1,
      "byteOffset": 72648,
      "componentType": 5126,
      "count": 2085,
      "max": [
        0.9306781888008118,
        0.999666154384613
      ],
      "min": [
        0.0005595179973170161,
        0.0005788803100585938
      ],
      "type": "VEC2"
    },
    {
      "bufferView": 0,
      "byteOffset": 18852,
      "componentType": 5125,
      "count": 11283,
      "type": "SCALAR"
    },
    {
      "bufferView": 2,
      "byteOffset": 89328,
      "componentType": 5126,
      "count": 2386,
      "max": [
        0.28636518120765686,
        -0.11470682173967361,
        0.2979235053062439
      ],
      "min": [
        -0.28617358207702637,
        -0.34664711356163025,
        -0.2835109233856201
      ],
      "type": "VEC3"
    },
    {
      "bufferView": 2,
      "byteOffset": 117960,
      "componentType": 5126,
      "count": 2386,
      "max": [
        0.9999123215675354,
        1.0,
        0.9985156655311584
      ],
      "min": [
        -0.9997140765190125,
        -0.9999999403953552,
        -0.9998627305030823
      ],
      "type": "VEC3"
    },
    {
      "bufferView": 1,
      "byteOffset": 89328,
      "componentType": 5126,
      "count": 2386,
      "max": [
        0.9997835159301758,
        0.9999918937683105
      ],
      "min": [
        2.9105000066920184e-05,
        0.03831005096435547
      ],
      "type": "VEC2"
    },
    {
      "bufferView": 1,
      "byteOffset": 108416,
      "componentType": 5126,
      "count": 2386,
      "max": [
        0.9997835159301758,
        0.9999918937683105
      ],
      "min": [
        2.9105000066920184e-05,
        0.03831005096435547
      ],
      "type": "VEC2"
    },
    {
      "bufferView": 1,
      "byteOffset": 127504,
      "componentType": 5126,
      "count": 2386,
      "max": [
        0.9997835159301758,
        0.9999918937683105
      ],
      "min": [
        2.9105000066920184e-05,
        0.03831005096435547
      ],
      "type": "VEC2"
    },
    {
      "bufferView": 0,
      "byteOffset": 63984,
      "componentType": 5125,
      "count": 5355,
      "type": "SCALAR"
    },
    {
      "bufferView": 2,
      "byteOffset": 146592,
      "componentType": 5126,
      "count": 254,
      "max": [
        -0.1706744134426117,
        0.18724730610847473,
        0.30825427174568176
      ],
      "min": [
        -0.2445557713508606,
        0.07690833508968353,
        0.17244018614292145
      ],
      "type": "VEC3"
    },
    {
      "bufferView": 2,
      "byteOffset": 149640,
      "componentType": 5126,
      "count": 254,
      "max": [
        0.9986701607704163,
        0.9918093681335449,
        0.9940263628959656
      ],
      "min": [
        -0.9922571182250977,
        -0.9990513324737549,
        -0.998772382736206
      ],
      "type": "VEC3"
    },
    {
      "bufferView": 1,
      "byteOffset": 146592,
      "componentType": 5126,
      "count": 254,
      "max": [
        0.957030713558197,
        0.9992474913597107
      ],
      "min": [
        0.0006860190187580884,
        1.6868114471435547e-05
      ],
      "type": "VEC2"
    },
    {
      "bufferView": 1,
      "byteOffset": 148624,
      "componentType": 5126,
      "count": 254,
      "max": [
        0.957030713558197,
        0.9992474913597107
      ],
      "min": [
        0.0006860190187580884,
        1.6868114471435547e-05
      ],
      "type": "VEC2"
    },
    {
      "bufferView": 1,
      "byteOffset": 150656,
      "componentType": 5126,
      "count": 254,
      "max": [
        0.957030713558197,
        0.9992474913597107
      ],
      "min": [
        0.0006860190187580884,
        1.6868114471435547e-05
      ],
      "type": "VEC2"
    },
    {
      "bufferView": 0,
      "byteOffset": 85404,
      "componentType": 5125,
      "count": 696,
      "type": "SCALAR"
    },
    {
      "bufferView": 2,
      "byteOffset": 152688,
      "componentType": 5126,
      "count": 120,
      "max": [
        -0.16265633702278137,
        0.13010376691818237,
        0.2944429814815521
      ],
      "min": [
        -0.22381827235221863,
        -0.03565848991274834,
        0.2120094895362854
      ],
      "type": "VEC3"
    },
    {
      "bufferView": 2,
      "byteOffset": 154128,
      "componentType": 5126,
      "count": 120,
      "max": [
        0.9852546453475952,
        0.955828070640564,
        0.9559308290481567
      ],
      "min": [
        -0.9881976842880249,
        -0.9581683874130249,
        -0.9529958367347717
      ],
      "type": "VEC3"
    },
    {
      "bufferView": 1,
      "byteOffset": 152688,
      "componentType": 5126,
      "count": 120,
      "max": [
        0.7363205552101135,
        0.9999223351478577
      ],
      "min": [
        0.00010138600191567093,
        7.76052474975586e-05
      ],
      "type": "VEC2"
    },
    {
      "bufferView": 1,
      "byteOffset": 153648,
      "componentType": 5126,
      "count": 120,
      "max": [
        0.7363205552101135,
        0.9999223351478577
      ],
      "min": [
        0.00010138600191567093,
        7.76052474975586e-05
      ],
      "type": "VEC2"
    },
    {
      "bufferView": 1,
      "byteOffset": 154608,
      "componentType": 5126,
      "count": 120,
      "max": [
        0.7363205552101135,
        0.9999223351478577
      ],
      "min": [
        0.00010138600191567093,
        7.76052474975586e-05
      ],
      "type": "VEC2"
    },
    {
      "bufferView": 0,
      "byteOffset": 88188,
      "componentType": 5125,
      "count": 441,
      "type": "SCALAR"
    }
  ],
  "asset": {
    "extras": {
      "author": "jason.lp.davis (https://sketchfab.com/jason.lp.davis)",
      "license": "CC-BY-4.0 (http://creativecommons.org/licenses/by/4.0/)",
      "source": "https://sketchfab.com/3d-models/patrick-spongebob-fanart-924601a2f8494cd7b77303cf887d30e7",
      "title": "Patrick Spongebob Fanart"
    },
    "generator": "Sketchfab-12.62.1",
    "version": "2.0"
  },
  "bufferViews": [
    {
      "buffer": 0,
      "byteLength": 89952,
      "name": "floatBufferViews",
      "target": 34963
    },
    {
      "buffer": 0,
      "byteLength": 155568,
      "byteOffset": 89952,
      "byteStride": 8,
      "name": "floatBufferViews",
      "target": 34962
    },
    {
      "buffer": 0,
      "byteLength": 155568,
      "byteOffset": 245520,
      "byteStride": 12,
      "name": "floatBufferViews",
      "target": 34962
    }
  ],
  "buffers": [
    {
      "byteLength": 401088,
      "uri": "scene.bin"
    }
  ],
  "images": [
    {
      "uri": "textures/mat0_eyes_baseColor.png"
    },
    {
      "uri": "textures/mat0_eyes_metallicRoughness.png"
    },
    {
      "uri": "textures/mat0_nail_baseColor.png"
    },
    {
      "uri": "textures/mat0_nail_metallicRoughness.png"
    },
    {
      "uri": "textures/mat0_flowers_baseColor.png"
    },
    {
      "uri": "textures/mat0_flowers_metallicRoughness.png"
    },
    {
      "uri": "textures/mat0_Box_baseColor.png"
    },
    {
      "uri": "textures/mat0_Box_metallicRoughness.png"
    },
    {
      "uri": "textures/mat0_pat_baseColor.png"
    },
    {
      "uri": "textures/mat0_pat_metallicRoughness.png"
    },
    {
      "uri": "textures/mat0_pants_baseColor.png"
    },
    {
      "uri": "textures/mat0_pants_metallicRoughness.png"
    },
    {
      "uri": "textures/mat0_hammer_baseColor.png"
    },
    {
      "uri": "textures/mat0_hammer_metallicRoughness.png"
    },
    {
      "uri": "textures/mat0_handle_baseColor.png"
    },
    {
      "uri": "textures/mat0_handle_metallicRoughness.png"
    }
  ],
  "materials": [
    {
      "name": "mat0_eyes",
      "pbrMetallicRoughness": {
        "baseColorTexture": {
          "index": 0
        },
        "metallicRoughnessTexture": {
          "index": 1
        },
        "roughnessFactor": 0.0
      }
    },
    {
      "name": "mat0_nail",
      "pbrMetallicRoughness": {
        "baseColorTexture": {
          "index": 2
        },
        "metallicRoughnessTexture": {
          "index": 3
        },
        "roughnessFactor": 0.0
      }
    },
    {
      "name": "mat0_flowers",
      "pbrMetallicRoughness": {
        "baseColorTexture": {
          "index": 4
        },
        "metallicRoughnessTexture": {
          "index": 5
        }
      }
    },
    {
      "name": "mat0_Box",
      "pbrMetallicRoughness": {
        "baseColorTexture": {
          "index": 6
        },
        "metallicRoughnessTexture": {
          "index": 7
        }
      }
    },
    {
      "name": "mat0_pat",
      "pbrMetallicRoughness": {
        "baseColorTexture": {
          "index": 8
        },
        "metallicRoughnessTexture": {
          "index": 9
        },
        "roughnessFactor": 0.9204070506996184
      }
    },
    {
      "name": "mat0_pants",
      "pbrMetallicRoughness": {
        "baseColorTexture": {
          "index": 10
        },
        "metallicRoughnessTexture": {
          "index": 11
        }
      }
    },
    {
      "name": "mat0_hammer",
      "pbrMetallicRoughness": {
        "baseColorTexture": {
          "index": 12
        },
        "metallicRoughnessTexture": {
          "index": 13
        },
        "roughnessFactor": 0.0016354715609667454
      }
    },
    {
      "name": "mat0_handle",
      "pbrMetallicRoughness": {
        "baseColorTexture": {
          "index": 14
        },
        "metallicRoughnessTexture": {
          "index": 15
        }
      }
    }
  ],
  "meshes": [
    {
      "name": "eyes_mat0_eyes_0",
      "primitives": [
        {
          "attributes": {
            "NORMAL": 1,
            "POSITION": 0,
            "TEXCOORD_0": 2,
            "TEXCOORD_1": 3,
            "TEXCOORD_2": 4
          },
          "indices": 5,
          "material": 0,
          "mode": 4
        }
      ]
    },
    {
      "name": "eyes_mat0_eyes_1",
      "primitives": [
        {
          "attributes": {
            "NORMAL": 7,
            "POSITION": 6,
            "TEXCOORD_0": 8,
            "TEXCOORD_1": 9,
            "TEXCOORD_2": 10
          },
          "indices": 11,
          "material": 1,
          "mode": 4
        }
      ]
    },
    {
      "name": "eyes_mat0_eyes_2",
      "primitives": [
        {
          "attributes": {
            "NORMAL": 13,
            "POSITION": 12,
            "TEXCOORD_0": 14,
            "TEXCOORD_1": 15,
            "TEXCOORD_2": 16
          },
          "indices": 17,
          "material": 2,
          "mode": 4
        }
      ]
    },
    {
      "name": "eyes_mat0_eyes_3",
      "primitives": [
        {
          "attributes": {
            "NORMAL": 19,
            "POSITION": 18,
            "TEXCOORD_0": 20,
            "TEXCOORD_1": 21,
            "TEXCOORD_2": 22
          },
          "indices": 23,
          "material": 3,
          "mode": 4
        }
      ]
    },
    {
      "name": "eyes_mat0_eyes_4",
      "primitives": [
        {
          "attributes": {
            "NORMAL": 25,
            "POSITION": 24,
            "TEXCOORD_0": 26,
            "TEXCOORD_1": 27,
            "TEXCOORD_2": 28
          },
          "indices": 29,
          "material": 4,
          "mode": 4
        }
      ]
    },
    {
      "name": "eyes_mat0_eyes_5",
      "primitives": [
        {
          "attributes": {
            "NORMAL": 31,
            "POSITION": 30,
            "TEXCOORD_0": 32,
            "TEXCOORD_1": 33,
            "TEXCOORD_2": 34
          },
          "indices": 35,
          "material": 5,
          "mode": 4
        }
      ]
    },
    {
      "name": "eyes_mat0_eyes_6",
      "primitives": [
        {
          "attributes": {
            "NORMAL": 37,
            "POSITION": 36,
            "TEXCOORD_0": 38,
            "TEXCOORD_1": 39,
            "TEXCOORD_2": 40
          },
          "indices": 41,
          "material": 6,
          "mode": 4
        }
      ]
    },
    {
      "name": "eyes_mat0_eyes_7",
      "primitives": [
        {
          "attributes": {
            "NORMAL": 43,
            "POSITION": 42,
            "TEXCOORD_0": 44,
            "TEXCOORD_1": 45,
            "TEXCOORD_2": 46
          },
          "indices": 47,
          "material": 7,
          "mode": 4
        }
      ]
    }
  ],
  "nodes": [
    {
      "children": [
        1
      ],
      "matrix": [
        1.0,
        0.0,
        0.0,
        0.0,
        0.0,
        2.220446049250313e-16,
        -1.0,
        0.0,
        0.0,
        1.0,
        2.220446049250313e-16,
        0.0,
        0.0,
        0.0,
        0.0,
        1.0
      ],
      "name": "Sketchfab_model"
    },
    {
      "children": [
        2
      ],
      "matrix": [
        1.0,
        0.0,
        0.0,
        0.0,
        0.0,
        2.220446049250313e-16,
        1.0,
        0.0,
        0.0,
        -1.0,
        2.220446049250313e-16,
        0.0,
        0.0,
        0.0,
        0.0,
        1.0
      ],
      "name": "USDRoot"
    },
    {
      "children": [
        3
      ],
      "name": "patrickfinal"
    },
    {
      "children": [
        4,
        5,
        6,
        7,
        8,
        9,
        10,
        11
      ],
      "name": "Geom"
    },
    {
      "mesh": 0,
      "name": "eyes_mat0_eyes_0"
    },
    {
      "mesh": 1,
      "name": "eyes_mat0_eyes_1"
    },
    {
      "mesh": 2,
      "name": "eyes_mat0_eyes_2"
    },
    {
      "mesh": 3,
      "name": "eyes_mat0_eyes_3"
    },
    {
      "mesh": 4,
      "name": "eyes_mat0_eyes_4"
    },
    {
      "mesh": 5,
      "name": "eyes_mat0_eyes_5"
    },
    {
      "mesh": 6,
      "name": "eyes_mat0_eyes_6"
    },
    {
      "mesh": 7,
      "name": "eyes_mat0_eyes_7"
    }
  ],
  "samplers": [
    {
      "magFilter": 9729,
      "minFilter": 9987,
      "wrapS": 10497,
      "wrapT": 10497
    }
  ],
  "scene": 0,
  "scenes": [
    {
      "name": "Sketchfab_Scene",
      "nodes": [
        0
      ]
    }
  ],
  "textures": [
    {
      "sampler": 0,
      "source": 0
    },
    {
      "sampler": 0,
      "source": 1
    },
    {
      "sampler": 0,
      "source": 2
    },
    {
      "sampler": 0,
      "source": 3
    },
    {
      "sampler": 0,
      "source": 4
    },
    {
      "sampler": 0,
      "source": 5
    },
    {
      "sampler": 0,
      "source": 6
    },
    {
      "sampler": 0,
      "source": 7
    },
    {
      "sampler": 0,
      "source": 8
    },
    {
      "sampler": 0,
      "source": 9
    },
    {
      "sampler": 0,
      "source": 10
    },
    {
      "sampler": 0,
      "source": 11
    },
    {
      "sampler": 0,
      "source": 12
    },
    {
      "sampler": 0,
      "source": 13
    },
    {
      "sampler": 0,
      "source": 14
    },
    {
      "sampler": 0,
      "source": 15
    }
  ]
}
