{
  "accessors": [
    {
      "bufferView": 2,
      "componentType": 5126,
      "count": 11649,
      "max": [
        0.49914202094078064,
        0.5,
        0.1588377058506012
      ],
      "min": [
        -0.4961020052433014,
        -0.49474605917930603,
        -0.1588377058506012
      ],
      "type": "VEC3"
    },
    {
      "bufferView": 2,
      "byteOffset": 139788,
      "componentType": 5126,
      "count": 11649,
      "max": [
        1.0,
        0.9781855940818787,
        0.999998927116394
      ],
      "min": [
        -0.999989926815033,
        -0.9981098771095276,
        -0.999998927116394
      ],
      "type": "VEC3"
    },
    {
      "bufferView": 1,
      "componentType": 5126,
      "count": 11649,
      "max": [
        0.8158203363418579,
        0.9999765157699585
      ],
      "min": [
        0.00020991265773773193,
        4.7653913497924805e-05
      ],
      "type": "VEC2"
    },
    {
      "bufferView": 1,
      "byteOffset": 93192,
      "componentType": 5126,
      "count": 11649,
      "max": [
        0.8158203363418579,
        0.9999765157699585
      ],
      "min": [
        0.00020991265773773193,
        4.7653913497924805e-05
      ],
      "type": "VEC2"
    },
    {
      "bufferView": 1,
      "byteOffset": 186384,
      "componentType": 5126,
      "count": 11649,
      "max": [
        0.8158203363418579,
        0.9999765157699585
      ],
      "min": [
        0.00020991265773773193,
        4.7653913497924805e-05
      ],
      "type": "VEC2"
    },
    {
      "bufferView": 0,
      "componentType": 5125,
      "count": 66360,
      "type": "SCALAR"
    }
  ],
  "asset": {
    "extras": {
      "author": "THEREALBIGGRAFIS (https://sketchfab.com/THEREALBIGGRAFIS)",
      "license": "CC-BY-4.0 (http://creativecommons.org/licenses/by/4.0/)",
      "source": "https://sketchfab.com/3d-models/the-fish-from-spongebob-squarepants-fd518bdda0af4751a626844f50c2683f",
      "title": "the fish from spongebob squarepants"
    },
    "generator": "Sketchfab-14.77.0",
    "version": "2.0"
  },
  "bufferViews": [
    {
      "buffer": 0,
      "byteLength": 265440,
      "name": "floatBufferViews",
      "target": 34963
    },
    {
      "buffer": 0,
      "byteLength": 279576,
      "byteOffset": 265440,
      "byteStride": 8,
      "name": "floatBufferViews",
      "target": 34962
    },
    {
      "buffer": 0,
      "byteLength": 279576,
      "byteOffset": 545016,
      "byteStride": 12,
      "name": "floatBufferViews",
      "target": 34962
    }
  ],
  "buffers": [
    {
      "byteLength": 824592,
      "uri": "scene.bin"
    }
  ],
  "extensionsRequired": [
    "KHR_materials_pbrSpecularGlossiness"
  ],
  "extensionsUsed": [
    "KHR_materials_pbrSpecularGlossiness"
  ],
  "images": [
    {
      "uri": "textures/material_diffuse.png"
    },
    {
      "uri": "textures/material_specularGlossiness.png"
    }
  ],
  "materials": [
    {
      "doubleSided": true,
      "extensions": {
        "KHR_materials_pbrSpecularGlossiness": {
          "diffuseFactor": [
            1.0,
            1.0,
            1.0,
            1.0
          ],
          "diffuseTexture": {
            "index": 0
          },
          "glossinessFactor": 1.0,
          "specularFactor": [
            1.0,
            1.0,
            1.0
          ],
          "specularGlossinessTexture": {
            "index": 1,
            "texCoord": 1
          }
        }
      },
      "name": "material"
    }
  ],
  "meshes": [
    {
      "name": "Object_0",
      "primitives": [
        {
          "attributes": {
            "NORMAL": 1,
            "POSITION": 0,
            "TEXCOORD_0": 2,
            "TEXCOORD_1": 3,
            "TEXCOORD_2": 4
          },
          "indices": 5,
          "material": 0,
          "mode": 4
        }
      ]
    }
  ],
  "nodes": [
    {
      "children": [
        1
      ],
      "matrix": [
        1.0,
        0.0,
        0.0,
        0.0,
        0.0,
        2.220446049250313e-16,
        -1.0,
        0.0,
        0.0,
        1.0,
        2.220446049250313e-16,
        0.0,
        0.0,
        0.0,
        0.0,
        1.0
      ],
      "name": "Sketchfab_model"
    },
    {
      "children": [
        2
      ],
      "name": "root"
    },
    {
      "children": [
        3
      ],
      "matrix": [
        1.0,
        0.0,
        0.0,
        0.0,
        0.0,
        2.220446049250313e-16,
        1.0,
        0.0,
        0.0,
        -1.0,
        2.220446049250313e-16,
        0.0,
        0.0,
        0.0,
        0.0,
        1.0
      ],
      "name": "GLTF_SceneRootNode"
    },
    {
      "children": [
        4
      ],
      "name": "root_1"
    },
    {
      "children": [
        5
      ],
      "matrix": [
        0.5413908362388611,
        0.0,
        0.0,
        0.0,
        0.0,
        0.25276419520378113,
        0.0,
        0.0,
        0.0,
        0.0,
        0.4171920418739319,
        0.0,
        0.3020230531692505,
        0.09115882962942123,
        0.184683695435524,
        1.0
      ],
      "name": "_0"
    },
    {
      "mesh": 0,
      "name": "Object_5"
    }
  ],
  "samplers": [
    {
      "magFilter": 9729,
      "minFilter": 9987,
      "wrapS": 10497,
      "wrapT": 10497
    }
  ],
  "scene": 0,
  "scenes": [
    {
      "name": "Sketchfab_Scene",
      "nodes": [
        0
      ]
    }
  ],
  "textures": [
    {
      "sampler": 0,
      "source": 0
    },
    {
      "sampler": 0,
      "source": 1
    }
  ]
}
