{
  "accessors": [
    {
      "bufferView": 2,
      "componentType": 5126,
      "count": 1408,
      "max": [
        1.9431232213974,
        5.190276622772217,
        1.9431232213974
      ],
      "min": [
        -1.9431232213974,
        0.0,
        -1.9431232213974
      ],
      "type": "VEC3"
    },
    {
      "bufferView": 2,
      "byteOffset": 16896,
      "componentType": 5126,
      "count": 1408,
      "max": [
        1.0,
        0.9998834133148193,
        1.0
      ],
      "min": [
        -1.0,
        -1.0,
        -1.0
      ],
      "type": "VEC3"
    },
    {
      "bufferView": 1,
      "componentType": 5126,
      "count": 1408,
      "max": [
        0.0,
        0.0
      ],
      "min": [
        0.0,
        0.0
      ],
      "type": "VEC2"
    },
    {
      "bufferView": 0,
      "componentType": 5125,
      "count": 5760,
      "type": "SCALAR"
    },
    {
      "bufferView": 2,
      "byteOffset": 33792,
      "componentType": 5126,
      "count": 1536,
      "max": [
        3.861356019973755,
        0.5000028610229492,
        3.861356019973755
      ],
      "min": [
        -3.861355781555176,
        2.8610231765924254e-06,
        -3.861356019973755
      ],
      "type": "VEC3"
    },
    {
      "bufferView": 2,
      "byteOffset": 52224,
      "componentType": 5126,
      "count": 1536,
      "max": [
        1.0,
        1.0,
        1.0
      ],
      "min": [
        -1.0,
        -1.0,
        -1.0
      ],
      "type": "VEC3"
    },
    {
      "bufferView": 1,
      "byteOffset": 11264,
      "componentType": 5126,
      "count": 1536,
      "max": [
        0.0,
        0.0
      ],
      "min": [
        0.0,
        0.0
      ],
      "type": "VEC2"
    },
    {
      "bufferView": 0,
      "byteOffset": 23040,
      "componentType": 5125,
      "count": 6912,
      "type": "SCALAR"
    },
    {
      "bufferView": 2,
      "byteOffset": 70656,
      "componentType": 5126,
      "count": 3328,
      "max": [
        3.0569069385528564,
        0.500004231929779,
        3.0569069385528564
      ],
      "min": [
        -3.0569069385528564,
        2.8610231765924254e-06,
        -3.0569069385528564
      ],
      "type": "VEC3"
    },
    {
      "bufferView": 2,
      "byteOffset": 110592,
      "componentType": 5126,
      "count": 3328,
      "max": [
        5.009422693547094e-06,
        1.0,
        4.6703153202543035e-06
      ],
      "min": [
        -5.009424057789147e-06,
        -1.0,
        -4.670315775001654e-06
      ],
      "type": "VEC3"
    },
    {
      "bufferView": 1,
      "byteOffset": 23552,
      "componentType": 5126,
      "count": 3328,
      "max": [
        0.0,
        0.0
      ],
      "min": [
        0.0,
        0.0
      ],
      "type": "VEC2"
    },
    {
      "bufferView": 0,
      "byteOffset": 50688,
      "componentType": 5125,
      "count": 18432,
      "type": "SCALAR"
    },
    {
      "bufferView": 2,
      "byteOffset": 150528,
      "componentType": 5126,
      "count": 1410,
      "max": [
        0.7692544460296631,
        0.5000040531158447,
        0.7692543864250183
      ],
      "min": [
        -0.7692544460296631,
        2.8889458008052316e-06,
        -0.7692543864250183
      ],
      "type": "VEC3"
    },
    {
      "bufferView": 2,
      "byteOffset": 167448,
      "componentType": 5126,
      "count": 1410,
      "max": [
        5.098607744002948e-06,
        1.0,
        4.776501100423047e-06
      ],
      "min": [
        -5.098606379760895e-06,
        -1.0,
        -4.7765001909283455e-06
      ],
      "type": "VEC3"
    },
    {
      "bufferView": 1,
      "byteOffset": 50176,
      "componentType": 5126,
      "count": 1410,
      "max": [
        0.0,
        0.0
      ],
      "min": [
        0.0,
        0.0
      ],
      "type": "VEC2"
    },
    {
      "bufferView": 0,
      "byteOffset": 124416,
      "componentType": 5125,
      "count": 7680,
      "type": "SCALAR"
    },
    {
      "bufferView": 2,
      "byteOffset": 184368,
      "componentType": 5126,
      "count": 54280,
      "max": [
        4.961562633514404,
        0.21889209747314453,
        4.961562633514404
      ],
      "min": [
        -4.961562633514404,
        -0.21581552922725677,
        -4.961562633514404
      ],
      "type": "VEC3"
    },
    {
      "bufferView": 2,
      "byteOffset": 835728,
      "componentType": 5126,
      "count": 54280,
      "max": [
        1.0,
        0.9999469518661499,
        1.0
      ],
      "min": [
        -1.0,
        -0.9998902082443237,
        -1.0
      ],
      "type": "VEC3"
    },
    {
      "bufferView": 1,
      "byteOffset": 61456,
      "componentType": 5126,
      "count": 54280,
      "max": [
        0.0,
        0.0
      ],
      "min": [
        0.0,
        0.0
      ],
      "type": "VEC2"
    },
    {
      "bufferView": 0,
      "byteOffset": 155136,
      "componentType": 5125,
      "count": 319488,
      "type": "SCALAR"
    }
  ],
  "asset": {
    "extras": {
      "author": "JYModels (https://sketchfab.com/JYModels)",
      "license": "CC-BY-4.0 (http://creativecommons.org/licenses/by/4.0/)",
      "source": "https://sketchfab.com/3d-models/krusty-krab-table-3817e6b2eaaa49369580394e3d7faae2",
      "title": "Krusty Krab Table"
    },
    "generator": "Sketchfab-15.30.0",
    "version": "2.0"
  },
  "bufferViews": [
    {
      "buffer": 0,
      "byteLength": 1433088,
      "name": "floatBufferViews",
      "target": 34963
    },
    {
      "buffer": 0,
      "byteLength": 495696,
      "byteOffset": 1433088,
      "byteStride": 8,
      "name": "floatBufferViews",
      "target": 34962
    },
    {
      "buffer": 0,
      "byteLength": 1487088,
      "byteOffset": 1928784,
      "byteStride": 12,
      "name": "floatBufferViews",
      "target": 34962
    }
  ],
  "buffers": [
    {
      "byteLength": 3415872,
      "uri": ".bin"
    }
  ],
  "materials": [
    {
      "doubleSided": true,
      "name": "Material",
      "pbrMetallicRoughness": {
        "baseColorFactor": [
          0.0889463,
          0.10019,
          0.15,
          1.0
        ],
        "metallicFactor": 0.5,
        "roughnessFactor": 0.4
      }
    },
    {
      "doubleSided": true,
      "name": "Material.001",
      "pbrMetallicRoughness": {
        "baseColorFactor": [
          0.5,
          0.0128165,
          0.00701575,
          1.0
        ],
        "metallicFactor": 0.0,
        "roughnessFactor": 0.5
      }
    },
    {
      "doubleSided": true,
      "name": "Material.002",
      "pbrMetallicRoughness": {
        "baseColorFactor": [
          0.8,
          0.699524,
          0.0113211,
          1.0
        ],
        "metallicFactor": 0.0,
        "roughnessFactor": 0.5
      }
    },
    {
      "doubleSided": true,
      "name": "Material.003",
      "pbrMetallicRoughness": {
        "baseColorFactor": [
          0.205551,
          0.463916,
          0.9,
          1.0
        ],
        "metallicFactor": 0.0,
        "roughnessFactor": 0.5
      }
    }
  ],
  "meshes": [
    {
      "name": "Object_0",
      "primitives": [
        {
          "attributes": {
            "NORMAL": 1,
            "POSITION": 0,
            "TEXCOORD_0": 2
          },
          "indices": 3,
          "material": 0,
          "mode": 4
        }
      ]
    },
    {
      "name": "Object_1",
      "primitives": [
        {
          "attributes": {
            "NORMAL": 5,
            "POSITION": 4,
            "TEXCOORD_0": 6
          },
          "indices": 7,
          "material": 1,
          "mode": 4
        }
      ]
    },
    {
      "name": "Object_2",
      "primitives": [
        {
          "attributes": {
            "NORMAL": 9,
            "POSITION": 8,
            "TEXCOORD_0": 10
          },
          "indices": 11,
          "material": 2,
          "mode": 4
        }
      ]
    },
    {
      "name": "Object_3",
      "primitives": [
        {
          "attributes": {
            "NORMAL": 13,
            "POSITION": 12,
            "TEXCOORD_0": 14
          },
          "indices": 15,
          "material": 3,
          "mode": 4
        }
      ]
    },
    {
      "name": "Object_4",
      "primitives": [
        {
          "attributes": {
            "NORMAL": 17,
            "POSITION": 16,
            "TEXCOORD_0": 18
          },
          "indices": 19,
          "material": 1,
          "mode": 4
        }
      ]
    }
  ],
  "nodes": [
    {
      "children": [
        1
      ],
      "matrix": [
        1.0,
        0.0,
        0.0,
        0.0,
        0.0,
        2.220446049250313e-16,
        -1.0,
        0.0,
        0.0,
        1.0,
        2.220446049250313e-16,
        0.0,
        0.0,
        0.0,
        0.0,
        1.0
      ],
      "name": "Sketchfab_model"
    },
    {
      "children": [
        2
      ],
      "name": "root"
    },
    {
      "children": [
        3
      ],
      "matrix": [
        1.0,
        0.0,
        0.0,
        0.0,
        0.0,
        2.220446049250313e-16,
        1.0,
        0.0,
        0.0,
        -1.0,
        2.220446049250313e-16,
        0.0,
        0.0,
        0.0,
        0.0,
        1.0
      ],
      "name": "GLTF_SceneRootNode"
    },
    {
      "children": [
        4,
        5
      ],
      "name": "Circle_2"
    },
    {
      "mesh": 0,
      "name": "Object_4"
    },
    {
      "children": [
        6,
        7,
        8,
        9
      ],
      "matrix": [
        1.0,
        0.0,
        0.0,
        0.0,
        0.0,
        1.0,
        0.0,
        0.0,
        0.0,
        0.0,
        1.0,
        0.0,
        0.0,
        5.188049793243408,
        0.0,
        1.0
      ],
      "name": "Circle.001_1"
    },
    {
      "mesh": 1,
      "name": "Object_6"
    },
    {
      "mesh": 2,
      "name": "Object_7"
    },
    {
      "mesh": 3,
      "name": "Object_8"
    },
    {
      "children": [
        10
      ],
      "matrix": [
        1.0,
        0.0,
        0.0,
        0.0,
        0.0,
        1.0,
        0.0,
        0.0,
        0.0,
        0.0,
        1.0,
        0.0,
        0.0,
        0.24785423278808594,
        0.0,
        1.0
      ],
      "name": "Circle.002_0"
    },
    {
      "mesh": 4,
      "name": "Object_10"
    }
  ],
  "scene": 0,
  "scenes": [
    {
      "name": "Sketchfab_Scene",
      "nodes": [
        0
      ]
    }
  ]
}
