{
  "accessors": [
    {
      "bufferView": 2,
      "componentType": 5126,
      "count": 711,
      "max": [
        1.484863042831421,
        1.484863042831421,
        3.191771984100342
      ],
      "min": [
        -1.484863042831421,
        -1.484863042831421,
        -0.0
      ],
      "type": "VEC3"
    },
    {
      "bufferView": 2,
      "byteOffset": 8532,
      "componentType": 5126,
      "count": 711,
      "max": [
        0.9997138977050781,
        0.999102771282196,
        1.0
      ],
      "min": [
        -0.9985718727111816,
        -0.9985718727111816,
        -1.0
      ],
      "type": "VEC3"
    },
    {
      "bufferView": 1,
      "componentType": 5126,
      "count": 711,
      "max": [
        1.046875,
        2.003906011581421
      ],
      "min": [
        -0.1757809966802597,
        1.0546879768371582
      ],
      "type": "VEC2"
    },
    {
      "bufferView": 0,
      "componentType": 5125,
      "count": 2358,
      "type": "SCALAR"
    }
  ],
  "asset": {
    "extras": {
      "author": "romyblox1234 (https://sketchfab.com/romyblox1234)",
      "license": "CC-BY-4.0 (http://creativecommons.org/licenses/by/4.0/)",
      "source": "https://sketchfab.com/3d-models/jellyfish-season-1-f5c16b44ebb940ea86415f51b366ac4d",
      "title": "Jellyfish season 1"
    },
    "generator": "Sketchfab-15.55.0",
    "version": "2.0"
  },
  "bufferViews": [
    {
      "buffer": 0,
      "byteLength": 9432,
      "name": "floatBufferViews",
      "target": 34963
    },
    {
      "buffer": 0,
      "byteLength": 5688,
      "byteOffset": 9432,
      "byteStride": 8,
      "name": "floatBufferViews",
      "target": 34962
    },
    {
      "buffer": 0,
      "byteLength": 17064,
      "byteOffset": 15120,
      "byteStride": 12,
      "name": "floatBufferViews",
      "target": 34962
    }
  ],
  "buffers": [
    {
      "byteLength": 32184,
      "uri": "scene.bin"
    }
  ],
  "images": [
    {
      "uri": "textures/mesh0062mat_baseColor.png"
    }
  ],
  "materials": [
    {
      "doubleSided": true,
      "name": "mesh0062mat",
      "pbrMetallicRoughness": {
        "baseColorTexture": {
          "index": 0
        },
        "metallicFactor": 0.0
      }
    }
  ],
  "meshes": [
    {
      "name": "Object_0",
      "primitives": [
        {
          "attributes": {
            "NORMAL": 1,
            "POSITION": 0,
            "TEXCOORD_0": 2
          },
          "indices": 3,
          "material": 0,
          "mode": 4
        }
      ]
    }
  ],
  "nodes": [
    {
      "children": [
        1
      ],
      "matrix": [
        1.0,
        0.0,
        0.0,
        0.0,
        0.0,
        2.220446049250313e-16,
        -1.0,
        0.0,
        0.0,
        1.0,
        2.220446049250313e-16,
        0.0,
        0.0,
        0.0,
        0.0,
        1.0
      ],
      "name": "Sketchfab_model"
    },
    {
      "children": [
        2
      ],
      "name": "jellyfish.obj.cleaner.materialmerger.gles"
    },
    {
      "mesh": 0,
      "name": "Object_2"
    }
  ],
  "samplers": [
    {
      "magFilter": 9729,
      "minFilter": 9987,
      "wrapS": 10497,
      "wrapT": 10497
    }
  ],
  "scene": 0,
  "scenes": [
    {
      "name": "Sketchfab_Scene",
      "nodes": [
        0
      ]
    }
  ],
  "textures": [
    {
      "sampler": 0,
      "source": 0
    }
  ]
}
