{
	"asset":{
		"generator":"Khronos glTF Blender I/O v4.2.70",
		"version":"2.0"
	},
	"scene":0,
	"scenes":[
		{
			"name":"Scene",
			"nodes":[
				13
			]
		}
	],
	"nodes":[
		{
			"mesh":0,
			"name":"Circle_0"
		},
		{
			"children":[
				0
			],
			"name":"Circle",
			"rotation":[
				0.7851349711418152,
				-9.480046108745806e-15,
				1.0465744278696267e-14,
				0.6193247437477112
			],
			"scale":[
				0.22432999312877655,
				0.2243274450302124,
				0.2243274450302124
			],
			"translation":[
				4.873578550814751e-15,
				1.7239601612091064,
				-0.19572997093200684
			]
		},
		{
			"mesh":1,
			"name":"Circle.003_0"
		},
		{
			"children":[
				2
			],
			"name":"Circle.003",
			"rotation":[
				-0.7071067690849304,
				-6.680345567087326e-15,
				-6.68037055455927e-15,
				0.7071067690849304
			],
			"scale":[
				0.7520999908447266,
				0.7520999908447266,
				0.7520999908447266
			],
			"translation":[
				6.760678171804924e-16,
				2.939539670944214,
				0.10539008677005768
			]
		},
		{
			"mesh":2,
			"name":"Circle.004_0"
		},
		{
			"children":[
				4
			],
			"name":"Circle.004",
			"rotation":[
				0.7851349711418152,
				-9.480046108745806e-15,
				1.0465744278696267e-14,
				0.6193247437477112
			],
			"scale":[
				0.22432999312877655,
				0.2243274450302124,
				0.2243274450302124
			],
			"translation":[
				4.873578550814751e-15,
				1.7239601612091064,
				-0.19572997093200684
			]
		},
		{
			"mesh":3,
			"name":"Sphere.001_0",
			"translation":[
				0,
				0,
				2.1766682039014995e-06
			]
		},
		{
			"children":[
				6
			],
			"name":"Sphere.001",
			"rotation":[
				-0.7071067690849304,
				-1.0320634829337396e-14,
				-1.0320660240325814e-14,
				0.7071067690849304
			],
			"scale":[
				0.24341000616550446,
				0.24341000616550446,
				0.24341000616550446
			],
			"translation":[
				2.0683189319234407e-14,
				5.016009330749512,
				-0.6335399150848389
			]
		},
		{
			"children":[
				1,
				3,
				5,
				7
			],
			"name":"Bone_Armature",
			"rotation":[
				0.7071066498756409,
				-6.548670228312403e-08,
				-4.128344954779095e-08,
				0.70710688829422
			],
			"translation":[
				-5.647594293400416e-16,
				-1.0807539752022421e-08,
				1.357089445264137e-07
			]
		},
		{
			"children":[
				8
			],
			"name":"Armature_rootJoint",
			"rotation":[
				-8.557137221032463e-09,
				1.7114272665708086e-08,
				-2.928982756881431e-16,
				1
			],
			"translation":[
				0,
				-1.0807539752022421e-08,
				1.323590055335444e-07
			]
		},
		{
			"children":[
				9
			],
			"name":"Armature",
			"translation":[
				0,
				0.09786999970674515,
				0.6299600601196289
			]
		},
		{
			"name":"Point",
			"translation":[
				3.243190050125122,
				5.364309787750244,
				6.6364006996154785
			]
		},
		{
			"children":[
				10,
				11
			],
			"name":"Root",
			"translation":[
				0,
				0,
				-2.2131075859069824
			]
		},
		{
			"children":[
				12
			],
			"name":"Sketchfab_model",
			"rotation":[
				-0.70710688829422,
				0,
				0,
				0.7071066498756409
			]
		}
	],
	"animations":[
		{
			"channels":[
				{
					"sampler":0,
					"target":{
						"node":9,
						"path":"translation"
					}
				},
				{
					"sampler":1,
					"target":{
						"node":9,
						"path":"rotation"
					}
				},
				{
					"sampler":2,
					"target":{
						"node":9,
						"path":"scale"
					}
				},
				{
					"sampler":3,
					"target":{
						"node":8,
						"path":"translation"
					}
				},
				{
					"sampler":4,
					"target":{
						"node":8,
						"path":"rotation"
					}
				},
				{
					"sampler":5,
					"target":{
						"node":8,
						"path":"scale"
					}
				},
				{
					"sampler":6,
					"target":{
						"node":10,
						"path":"translation"
					}
				},
				{
					"sampler":7,
					"target":{
						"node":10,
						"path":"rotation"
					}
				},
				{
					"sampler":8,
					"target":{
						"node":11,
						"path":"rotation"
					}
				}
			],
			"name":"Take 01",
			"samplers":[
				{
					"input":16,
					"interpolation":"STEP",
					"output":17
				},
				{
					"input":16,
					"interpolation":"STEP",
					"output":18
				},
				{
					"input":16,
					"interpolation":"STEP",
					"output":19
				},
				{
					"input":16,
					"interpolation":"STEP",
					"output":20
				},
				{
					"input":16,
					"interpolation":"STEP",
					"output":21
				},
				{
					"input":16,
					"interpolation":"STEP",
					"output":22
				},
				{
					"input":23,
					"interpolation":"LINEAR",
					"output":24
				},
				{
					"input":23,
					"interpolation":"LINEAR",
					"output":25
				},
				{
					"input":26,
					"interpolation":"LINEAR",
					"output":27
				}
			]
		}
	],
	"materials":[
		{
			"doubleSided":true,
			"name":"Kuda",
			"pbrMetallicRoughness":{
				"baseColorTexture":{
					"index":0
				},
				"metallicFactor":0,
				"roughnessFactor":0.6000000238418579
			}
		},
		{
			"doubleSided":true,
			"name":"Patrick",
			"pbrMetallicRoughness":{
				"baseColorTexture":{
					"index":1
				},
				"metallicFactor":0,
				"roughnessFactor":0.6000000238418579
			}
		}
	],
	"meshes":[
		{
			"name":"Circle_0",
			"primitives":[
				{
					"attributes":{
						"POSITION":0,
						"NORMAL":1,
						"TEXCOORD_0":2
					},
					"indices":3,
					"material":0
				}
			]
		},
		{
			"name":"Circle.003_0",
			"primitives":[
				{
					"attributes":{
						"POSITION":4,
						"NORMAL":5,
						"TEXCOORD_0":6
					},
					"indices":7,
					"material":1
				}
			]
		},
		{
			"name":"Circle.004_0",
			"primitives":[
				{
					"attributes":{
						"POSITION":8,
						"NORMAL":9,
						"TEXCOORD_0":10
					},
					"indices":11,
					"material":0
				}
			]
		},
		{
			"name":"Sphere.001_0",
			"primitives":[
				{
					"attributes":{
						"POSITION":12,
						"NORMAL":13,
						"TEXCOORD_0":14
					},
					"indices":15,
					"material":1
				}
			]
		}
	],
	"textures":[
		{
			"sampler":0,
			"source":0
		},
		{
			"sampler":0,
			"source":1
		}
	],
	"images":[
		{
			"mimeType":"image/png",
			"name":"Kuda_baseColor",
			"uri":"textures/Kuda_baseColor.png"
		},
		{
			"mimeType":"image/png",
			"name":"Patrick_baseColor",
			"uri":"textures/Patrick_baseColor.png"
		}
	],
	"skins":[
		{
			"inverseBindMatrices":28,
			"joints":[
				9,
				8
			],
			"name":"Armature"
		}
	],
	"accessors":[
		{
			"bufferView":0,
			"componentType":5126,
			"count":7107,
			"max":[
				2.7730600833892822,
				5.744200229644775,
				2.221909999847412
			],
			"min":[
				-2.7730600833892822,
				-9.384260177612305,
				-10.491299629211426
			],
			"type":"VEC3"
		},
		{
			"bufferView":1,
			"componentType":5126,
			"count":7107,
			"type":"VEC3"
		},
		{
			"bufferView":2,
			"componentType":5126,
			"count":7107,
			"type":"VEC2"
		},
		{
			"bufferView":3,
			"componentType":5123,
			"count":40704,
			"type":"SCALAR"
		},
		{
			"bufferView":4,
			"componentType":5126,
			"count":6927,
			"max":[
				1.4762599468231201,
				1.313349962234497,
				4.441709995269775
			],
			"min":[
				-1.4762599468231201,
				-1.129040002822876,
				-1.6103099584579468
			],
			"type":"VEC3"
		},
		{
			"bufferView":5,
			"componentType":5126,
			"count":6927,
			"type":"VEC3"
		},
		{
			"bufferView":6,
			"componentType":5126,
			"count":6927,
			"type":"VEC2"
		},
		{
			"bufferView":7,
			"componentType":5123,
			"count":37920,
			"type":"SCALAR"
		},
		{
			"bufferView":8,
			"componentType":5126,
			"count":546,
			"max":[
				2.9670400619506836,
				2.5262598991394043,
				-0.6487100124359131
			],
			"min":[
				-2.9670400619506836,
				-1.7931599617004395,
				-3.3923699855804443
			],
			"type":"VEC3"
		},
		{
			"bufferView":9,
			"componentType":5126,
			"count":546,
			"type":"VEC3"
		},
		{
			"bufferView":10,
			"componentType":5126,
			"count":546,
			"type":"VEC2"
		},
		{
			"bufferView":11,
			"componentType":5123,
			"count":2688,
			"type":"SCALAR"
		},
		{
			"bufferView":12,
			"componentType":5126,
			"count":10098,
			"max":[
				1.6341300010681152,
				0.9934999942779541,
				2.442009925842285
			],
			"min":[
				-1.6341300010681152,
				-1.0031100511550903,
				-1.2977499961853027
			],
			"type":"VEC3"
		},
		{
			"bufferView":13,
			"componentType":5126,
			"count":10098,
			"type":"VEC3"
		},
		{
			"bufferView":14,
			"componentType":5126,
			"count":10098,
			"type":"VEC2"
		},
		{
			"bufferView":15,
			"componentType":5123,
			"count":49152,
			"type":"SCALAR"
		},
		{
			"bufferView":16,
			"componentType":5126,
			"count":2,
			"max":[
				1.2916666666666667
			],
			"min":[
				0
			],
			"type":"SCALAR"
		},
		{
			"bufferView":17,
			"componentType":5126,
			"count":2,
			"type":"VEC3"
		},
		{
			"bufferView":18,
			"componentType":5126,
			"count":2,
			"type":"VEC4"
		},
		{
			"bufferView":19,
			"componentType":5126,
			"count":2,
			"type":"VEC3"
		},
		{
			"bufferView":20,
			"componentType":5126,
			"count":2,
			"type":"VEC3"
		},
		{
			"bufferView":21,
			"componentType":5126,
			"count":2,
			"type":"VEC4"
		},
		{
			"bufferView":22,
			"componentType":5126,
			"count":2,
			"type":"VEC3"
		},
		{
			"bufferView":23,
			"componentType":5126,
			"count":32,
			"max":[
				1.2916666666666667
			],
			"min":[
				0
			],
			"type":"SCALAR"
		},
		{
			"bufferView":24,
			"componentType":5126,
			"count":32,
			"type":"VEC3"
		},
		{
			"bufferView":25,
			"componentType":5126,
			"count":32,
			"type":"VEC4"
		},
		{
			"bufferView":26,
			"componentType":5126,
			"count":1,
			"max":[
				0
			],
			"min":[
				0
			],
			"type":"SCALAR"
		},
		{
			"bufferView":27,
			"componentType":5126,
			"count":1,
			"type":"VEC4"
		},
		{
			"bufferView":28,
			"componentType":5126,
			"count":2,
			"type":"MAT4"
		}
	],
	"bufferViews":[
		{
			"buffer":0,
			"byteLength":85284,
			"byteOffset":0,
			"target":34962
		},
		{
			"buffer":0,
			"byteLength":85284,
			"byteOffset":85284,
			"target":34962
		},
		{
			"buffer":0,
			"byteLength":56856,
			"byteOffset":170568,
			"target":34962
		},
		{
			"buffer":0,
			"byteLength":81408,
			"byteOffset":227424,
			"target":34963
		},
		{
			"buffer":0,
			"byteLength":83124,
			"byteOffset":308832,
			"target":34962
		},
		{
			"buffer":0,
			"byteLength":83124,
			"byteOffset":391956,
			"target":34962
		},
		{
			"buffer":0,
			"byteLength":55416,
			"byteOffset":475080,
			"target":34962
		},
		{
			"buffer":0,
			"byteLength":75840,
			"byteOffset":530496,
			"target":34963
		},
		{
			"buffer":0,
			"byteLength":6552,
			"byteOffset":606336,
			"target":34962
		},
		{
			"buffer":0,
			"byteLength":6552,
			"byteOffset":612888,
			"target":34962
		},
		{
			"buffer":0,
			"byteLength":4368,
			"byteOffset":619440,
			"target":34962
		},
		{
			"buffer":0,
			"byteLength":5376,
			"byteOffset":623808,
			"target":34963
		},
		{
			"buffer":0,
			"byteLength":121176,
			"byteOffset":629184,
			"target":34962
		},
		{
			"buffer":0,
			"byteLength":121176,
			"byteOffset":750360,
			"target":34962
		},
		{
			"buffer":0,
			"byteLength":80784,
			"byteOffset":871536,
			"target":34962
		},
		{
			"buffer":0,
			"byteLength":98304,
			"byteOffset":952320,
			"target":34963
		},
		{
			"buffer":0,
			"byteLength":8,
			"byteOffset":1050624
		},
		{
			"buffer":0,
			"byteLength":24,
			"byteOffset":1050632
		},
		{
			"buffer":0,
			"byteLength":32,
			"byteOffset":1050656
		},
		{
			"buffer":0,
			"byteLength":24,
			"byteOffset":1050688
		},
		{
			"buffer":0,
			"byteLength":24,
			"byteOffset":1050712
		},
		{
			"buffer":0,
			"byteLength":32,
			"byteOffset":1050736
		},
		{
			"buffer":0,
			"byteLength":24,
			"byteOffset":1050768
		},
		{
			"buffer":0,
			"byteLength":128,
			"byteOffset":1050792
		},
		{
			"buffer":0,
			"byteLength":384,
			"byteOffset":1050920
		},
		{
			"buffer":0,
			"byteLength":512,
			"byteOffset":1051304
		},
		{
			"buffer":0,
			"byteLength":4,
			"byteOffset":1051816
		},
		{
			"buffer":0,
			"byteLength":16,
			"byteOffset":1051820
		},
		{
			"buffer":0,
			"byteLength":128,
			"byteOffset":1051836
		}
	],
	"samplers":[
		{
			"magFilter":9729,
			"minFilter":9987
		}
	],
	"buffers":[
		{
			"byteLength":1051964,
			"uri":"scene.bin"
		}
	]
}
