{
	"asset":{
		"generator":"Khronos glTF Blender I/O v4.2.70",
		"version":"2.0"
	},
	"scene":0,
	"scenes":[
		{
			"name":"Scene",
			"nodes":[
				10
			]
		}
	],
	"nodes":[
		{
			"mesh":0,
			"name":"Object_11",
			"translation":[
				0,
				3.7083034385432256e-06,
				2.0061343093402684e-06
			]
		},
		{
			"mesh":1,
			"name":"Object_12",
			"translation":[
				0,
				3.7083034385432256e-06,
				2.0061343093402684e-06
			]
		},
		{
			"mesh":2,
			"name":"Object_2",
			"translation":[
				0,
				3.7083034385432256e-06,
				2.0061343093402684e-06
			]
		},
		{
			"mesh":3,
			"name":"Object_3",
			"translation":[
				0,
				3.7083034385432256e-06,
				2.0061343093402684e-06
			]
		},
		{
			"mesh":4,
			"name":"Object_5",
			"translation":[
				0,
				3.7083034385432256e-06,
				2.0061343093402684e-06
			]
		},
		{
			"mesh":5,
			"name":"Object_6",
			"translation":[
				0,
				3.7083034385432256e-06,
				2.0061343093402684e-06
			]
		},
		{
			"mesh":6,
			"name":"Object_7",
			"translation":[
				0,
				3.7083034385432256e-06,
				2.0061343093402684e-06
			]
		},
		{
			"mesh":7,
			"name":"Object_8",
			"translation":[
				0,
				3.7083034385432256e-06,
				2.0061343093402684e-06
			]
		},
		{
			"mesh":8,
			"name":"Object_9",
			"translation":[
				0,
				3.7083034385432256e-06,
				2.0061343093402684e-06
			]
		},
		{
			"children":[
				0,
				1,
				2,
				3,
				4,
				5,
				6,
				7,
				8
			],
			"name":"new tscp roblox spongebob house.obj.cleaner.materialmerger.gles",
			"translation":[
				0,
				3.7083034385432256e-06,
				2.0061343093402684e-06
			]
		},
		{
			"children":[
				9
			],
			"name":"Sketchfab_model",
			"rotation":[
				-0.70710688829422,
				0,
				0,
				0.7071066498756409
			],
			"translation":[
				-475.2200012207031,
				-27.599998474121094,
				155.4199981689453
			]
		}
	],
	"materials":[
		{
			"doubleSided":true,
			"name":"Backdoor1Mtl",
			"pbrMetallicRoughness":{
				"baseColorTexture":{
					"index":0
				},
				"metallicFactor":0,
				"roughnessFactor":0.6000000238418579
			}
		},
		{
			"doubleSided":true,
			"name":"Backdoor2Mtl",
			"pbrMetallicRoughness":{
				"baseColorTexture":{
					"index":1
				},
				"metallicFactor":0,
				"roughnessFactor":0.6000000238418579
			}
		},
		{
			"doubleSided":true,
			"name":"Body1Mtl",
			"pbrMetallicRoughness":{
				"baseColorTexture":{
					"index":2
				},
				"metallicFactor":0,
				"roughnessFactor":0.6000000238418579
			}
		},
		{
			"doubleSided":true,
			"name":"Flowows1Mtl",
			"pbrMetallicRoughness":{
				"baseColorTexture":{
					"index":3
				},
				"metallicFactor":0,
				"roughnessFactor":0.6000000238418579
			}
		},
		{
			"doubleSided":true,
			"name":"GarageDoor1Mtl",
			"pbrMetallicRoughness":{
				"baseColorTexture":{
					"index":4
				},
				"metallicFactor":0,
				"roughnessFactor":0.6000000238418579
			}
		},
		{
			"doubleSided":true,
			"name":"Outline1Mtl",
			"pbrMetallicRoughness":{
				"baseColorTexture":{
					"index":5
				},
				"metallicFactor":0,
				"roughnessFactor":0.6000000238418579
			}
		},
		{
			"doubleSided":true,
			"name":"Window1Mtl",
			"pbrMetallicRoughness":{
				"baseColorTexture":{
					"index":6
				},
				"metallicFactor":0,
				"roughnessFactor":0.6000000238418579
			}
		},
		{
			"doubleSided":true,
			"name":"RooofTop1Mtl",
			"pbrMetallicRoughness":{
				"baseColorTexture":{
					"index":7
				},
				"metallicFactor":0,
				"roughnessFactor":0.6000000238418579
			}
		},
		{
			"doubleSided":true,
			"name":"Leaves1Mtl",
			"pbrMetallicRoughness":{
				"baseColorTexture":{
					"index":8
				},
				"metallicFactor":0,
				"roughnessFactor":0.6000000238418579
			}
		}
	],
	"meshes":[
		{
			"name":"Object_9",
			"primitives":[
				{
					"attributes":{
						"POSITION":0,
						"NORMAL":1,
						"TEXCOORD_0":2
					},
					"indices":3,
					"material":0
				}
			]
		},
		{
			"name":"Object_10",
			"primitives":[
				{
					"attributes":{
						"POSITION":4,
						"NORMAL":5,
						"TEXCOORD_0":6
					},
					"indices":7,
					"material":1
				}
			]
		},
		{
			"name":"Object_0",
			"primitives":[
				{
					"attributes":{
						"POSITION":8,
						"NORMAL":9,
						"TEXCOORD_0":10
					},
					"indices":11,
					"material":2
				}
			]
		},
		{
			"name":"Object_1",
			"primitives":[
				{
					"attributes":{
						"POSITION":12,
						"NORMAL":13,
						"TEXCOORD_0":14
					},
					"indices":15,
					"material":3
				}
			]
		},
		{
			"name":"Object_3",
			"primitives":[
				{
					"attributes":{
						"POSITION":16,
						"NORMAL":17,
						"TEXCOORD_0":18
					},
					"indices":19,
					"material":4
				}
			]
		},
		{
			"name":"Object_4",
			"primitives":[
				{
					"attributes":{
						"POSITION":20,
						"NORMAL":21,
						"TEXCOORD_0":22
					},
					"indices":23,
					"material":5
				}
			]
		},
		{
			"name":"Object_5",
			"primitives":[
				{
					"attributes":{
						"POSITION":24,
						"NORMAL":25,
						"TEXCOORD_0":26
					},
					"indices":27,
					"material":6
				}
			]
		},
		{
			"name":"Object_6",
			"primitives":[
				{
					"attributes":{
						"POSITION":28,
						"NORMAL":29,
						"TEXCOORD_0":30
					},
					"indices":31,
					"material":7
				}
			]
		},
		{
			"name":"Object_7",
			"primitives":[
				{
					"attributes":{
						"POSITION":32,
						"NORMAL":33,
						"TEXCOORD_0":34
					},
					"indices":35,
					"material":8
				}
			]
		}
	],
	"textures":[
		{
			"sampler":0,
			"source":0
		},
		{
			"sampler":0,
			"source":1
		},
		{
			"sampler":0,
			"source":2
		},
		{
			"sampler":0,
			"source":3
		},
		{
			"sampler":0,
			"source":4
		},
		{
			"sampler":0,
			"source":2
		},
		{
			"sampler":0,
			"source":5
		},
		{
			"sampler":0,
			"source":6
		},
		{
			"sampler":0,
			"source":7
		}
	],
	"images":[
		{
			"mimeType":"image/png",
			"name":"Backdoor1Mtl_baseColor",
			"uri":"textures/Backdoor1Mtl_baseColor.png"
		},
		{
			"mimeType":"image/png",
			"name":"Backdoor2Mtl_baseColor",
			"uri":"textures/Backdoor2Mtl_baseColor.png"
		},
		{
			"mimeType":"image/png",
			"name":"Body1Mtl_baseColor",
			"uri":"textures/Body1Mtl_baseColor.png"
		},
		{
			"mimeType":"image/png",
			"name":"Flowows1Mtl_baseColor",
			"uri":"textures/Flowows1Mtl_baseColor.png"
		},
		{
			"mimeType":"image/png",
			"name":"GarageDoor1Mtl_baseColor",
			"uri":"textures/GarageDoor1Mtl_baseColor.png"
		},
		{
			"mimeType":"image/png",
			"name":"Window1Mtl_baseColor",
			"uri":"textures/Window1Mtl_baseColor.png"
		},
		{
			"mimeType":"image/png",
			"name":"RooofTop1Mtl_baseColor",
			"uri":"textures/RooofTop1Mtl_baseColor.png"
		},
		{
			"mimeType":"image/png",
			"name":"Leaves1Mtl_baseColor",
			"uri":"textures/Leaves1Mtl_baseColor.png"
		}
	],
	"accessors":[
		{
			"bufferView":0,
			"componentType":5126,
			"count":26,
			"max":[
				498.89599609375,
				161.21499633789062,
				25.644800186157227
			],
			"min":[
				466.4960021972656,
				147.2220001220703,
				21.11840057373047
			],
			"type":"VEC3"
		},
		{
			"bufferView":1,
			"componentType":5126,
			"count":26,
			"type":"VEC3"
		},
		{
			"bufferView":2,
			"componentType":5126,
			"count":26,
			"type":"VEC2"
		},
		{
			"bufferView":3,
			"componentType":5123,
			"count":96,
			"type":"SCALAR"
		},
		{
			"bufferView":4,
			"componentType":5126,
			"count":307,
			"max":[
				500.4309997558594,
				163.3239288330078,
				31.527666091918945
			],
			"min":[
				464.74200439453125,
				145.19973754882812,
				17.416900634765625
			],
			"type":"VEC3"
		},
		{
			"bufferView":5,
			"componentType":5126,
			"count":307,
			"type":"VEC3"
		},
		{
			"bufferView":6,
			"componentType":5126,
			"count":307,
			"type":"VEC2"
		},
		{
			"bufferView":7,
			"componentType":5123,
			"count":705,
			"type":"SCALAR"
		},
		{
			"bufferView":8,
			"componentType":5126,
			"count":107,
			"max":[
				499.87322998046875,
				176.20285034179688,
				56.573299407958984
			],
			"min":[
				463.8631286621094,
				141.3545379638672,
				17.10538673400879
			],
			"type":"VEC3"
		},
		{
			"bufferView":9,
			"componentType":5126,
			"count":107,
			"type":"VEC3"
		},
		{
			"bufferView":10,
			"componentType":5126,
			"count":107,
			"type":"VEC2"
		},
		{
			"bufferView":11,
			"componentType":5123,
			"count":411,
			"type":"SCALAR"
		},
		{
			"bufferView":12,
			"componentType":5126,
			"count":88,
			"max":[
				498.9939880371094,
				175.65499877929688,
				21.720199584960938
			],
			"min":[
				466.25799560546875,
				142.6840057373047,
				16.499099731445312
			],
			"type":"VEC3"
		},
		{
			"bufferView":13,
			"componentType":5126,
			"count":88,
			"type":"VEC3"
		},
		{
			"bufferView":14,
			"componentType":5126,
			"count":88,
			"type":"VEC2"
		},
		{
			"bufferView":15,
			"componentType":5123,
			"count":132,
			"type":"SCALAR"
		},
		{
			"bufferView":16,
			"componentType":5126,
			"count":24,
			"max":[
				472.4490051269531,
				171.35499572753906,
				32.22370147705078
			],
			"min":[
				464.2099914550781,
				155.10899353027344,
				17.361099243164062
			],
			"type":"VEC3"
		},
		{
			"bufferView":17,
			"componentType":5126,
			"count":24,
			"type":"VEC3"
		},
		{
			"bufferView":18,
			"componentType":5126,
			"count":24,
			"type":"VEC2"
		},
		{
			"bufferView":19,
			"componentType":5123,
			"count":90,
			"type":"SCALAR"
		},
		{
			"bufferView":20,
			"componentType":5126,
			"count":532,
			"max":[
				500.0816955566406,
				176.78627014160156,
				57.238407135009766
			],
			"min":[
				463.63580322265625,
				140.5185546875,
				16.705978393554688
			],
			"type":"VEC3"
		},
		{
			"bufferView":21,
			"componentType":5126,
			"count":532,
			"type":"VEC3"
		},
		{
			"bufferView":22,
			"componentType":5126,
			"count":532,
			"type":"VEC2"
		},
		{
			"bufferView":23,
			"componentType":5123,
			"count":1590,
			"type":"SCALAR"
		},
		{
			"bufferView":24,
			"componentType":5126,
			"count":254,
			"max":[
				499.7642822265625,
				172.80996704101562,
				51.418975830078125
			],
			"min":[
				466.7911682128906,
				140.62930297851562,
				22.594297409057617
			],
			"type":"VEC3"
		},
		{
			"bufferView":25,
			"componentType":5126,
			"count":254,
			"type":"VEC3"
		},
		{
			"bufferView":26,
			"componentType":5126,
			"count":254,
			"type":"VEC2"
		},
		{
			"bufferView":27,
			"componentType":5123,
			"count":732,
			"type":"SCALAR"
		},
		{
			"bufferView":28,
			"componentType":5126,
			"count":41,
			"max":[
				488.7860107421875,
				165.6929931640625,
				57.263301849365234
			],
			"min":[
				474.989013671875,
				151.89599609375,
				56.46689987182617
			],
			"type":"VEC3"
		},
		{
			"bufferView":29,
			"componentType":5126,
			"count":41,
			"type":"VEC3"
		},
		{
			"bufferView":30,
			"componentType":5126,
			"count":41,
			"type":"VEC2"
		},
		{
			"bufferView":31,
			"componentType":5123,
			"count":144,
			"type":"SCALAR"
		},
		{
			"bufferView":32,
			"componentType":5126,
			"count":150,
			"max":[
				493.95098876953125,
				173.38699340820312,
				79.31919860839844
			],
			"min":[
				469.81201171875,
				144.20199584960938,
				55.13890075683594
			],
			"type":"VEC3"
		},
		{
			"bufferView":33,
			"componentType":5126,
			"count":150,
			"type":"VEC3"
		},
		{
			"bufferView":34,
			"componentType":5126,
			"count":150,
			"type":"VEC2"
		},
		{
			"bufferView":35,
			"componentType":5123,
			"count":390,
			"type":"SCALAR"
		}
	],
	"bufferViews":[
		{
			"buffer":0,
			"byteLength":312,
			"byteOffset":0,
			"target":34962
		},
		{
			"buffer":0,
			"byteLength":312,
			"byteOffset":312,
			"target":34962
		},
		{
			"buffer":0,
			"byteLength":208,
			"byteOffset":624,
			"target":34962
		},
		{
			"buffer":0,
			"byteLength":192,
			"byteOffset":832,
			"target":34963
		},
		{
			"buffer":0,
			"byteLength":3684,
			"byteOffset":1024,
			"target":34962
		},
		{
			"buffer":0,
			"byteLength":3684,
			"byteOffset":4708,
			"target":34962
		},
		{
			"buffer":0,
			"byteLength":2456,
			"byteOffset":8392,
			"target":34962
		},
		{
			"buffer":0,
			"byteLength":1410,
			"byteOffset":10848,
			"target":34963
		},
		{
			"buffer":0,
			"byteLength":1284,
			"byteOffset":12260,
			"target":34962
		},
		{
			"buffer":0,
			"byteLength":1284,
			"byteOffset":13544,
			"target":34962
		},
		{
			"buffer":0,
			"byteLength":856,
			"byteOffset":14828,
			"target":34962
		},
		{
			"buffer":0,
			"byteLength":822,
			"byteOffset":15684,
			"target":34963
		},
		{
			"buffer":0,
			"byteLength":1056,
			"byteOffset":16508,
			"target":34962
		},
		{
			"buffer":0,
			"byteLength":1056,
			"byteOffset":17564,
			"target":34962
		},
		{
			"buffer":0,
			"byteLength":704,
			"byteOffset":18620,
			"target":34962
		},
		{
			"buffer":0,
			"byteLength":264,
			"byteOffset":19324,
			"target":34963
		},
		{
			"buffer":0,
			"byteLength":288,
			"byteOffset":19588,
			"target":34962
		},
		{
			"buffer":0,
			"byteLength":288,
			"byteOffset":19876,
			"target":34962
		},
		{
			"buffer":0,
			"byteLength":192,
			"byteOffset":20164,
			"target":34962
		},
		{
			"buffer":0,
			"byteLength":180,
			"byteOffset":20356,
			"target":34963
		},
		{
			"buffer":0,
			"byteLength":6384,
			"byteOffset":20536,
			"target":34962
		},
		{
			"buffer":0,
			"byteLength":6384,
			"byteOffset":26920,
			"target":34962
		},
		{
			"buffer":0,
			"byteLength":4256,
			"byteOffset":33304,
			"target":34962
		},
		{
			"buffer":0,
			"byteLength":3180,
			"byteOffset":37560,
			"target":34963
		},
		{
			"buffer":0,
			"byteLength":3048,
			"byteOffset":40740,
			"target":34962
		},
		{
			"buffer":0,
			"byteLength":3048,
			"byteOffset":43788,
			"target":34962
		},
		{
			"buffer":0,
			"byteLength":2032,
			"byteOffset":46836,
			"target":34962
		},
		{
			"buffer":0,
			"byteLength":1464,
			"byteOffset":48868,
			"target":34963
		},
		{
			"buffer":0,
			"byteLength":492,
			"byteOffset":50332,
			"target":34962
		},
		{
			"buffer":0,
			"byteLength":492,
			"byteOffset":50824,
			"target":34962
		},
		{
			"buffer":0,
			"byteLength":328,
			"byteOffset":51316,
			"target":34962
		},
		{
			"buffer":0,
			"byteLength":288,
			"byteOffset":51644,
			"target":34963
		},
		{
			"buffer":0,
			"byteLength":1800,
			"byteOffset":51932,
			"target":34962
		},
		{
			"buffer":0,
			"byteLength":1800,
			"byteOffset":53732,
			"target":34962
		},
		{
			"buffer":0,
			"byteLength":1200,
			"byteOffset":55532,
			"target":34962
		},
		{
			"buffer":0,
			"byteLength":780,
			"byteOffset":56732,
			"target":34963
		}
	],
	"samplers":[
		{
			"magFilter":9729,
			"minFilter":9987
		}
	],
	"buffers":[
		{
			"byteLength":57512,
			"uri":"scene.bin"
		}
	]
}
