{
  "accessors": [
    {
      "bufferView": 2,
      "componentType": 5126,
      "count": 1469,
      "max": [
        16.083900451660156,
        53.54930114746094,
        173.9510040283203
      ],
      "min": [
        -78.6417007446289,
        7.905580043792725,
        83.54609680175781
      ],
      "type": "VEC3"
    },
    {
      "bufferView": 2,
      "byteOffset": 17628,
      "componentType": 5126,
      "count": 1469,
      "max": [
        1.0,
        0.9999690055847168,
        0.9991950392723083
      ],
      "min": [
        -1.0,
        -0.9999690055847168,
        -1.0
      ],
      "type": "VEC3"
    },
    {
      "bufferView": 1,
      "componentType": 5126,
      "count": 1469,
      "max": [
        0.9568639993667603,
        0.9997699856758118
      ],
      "min": [
        0.00022969099518377334,
        0.00022971599537413567
      ],
      "type": "VEC2"
    },
    {
      "bufferView": 0,
      "componentType": 5125,
      "count": 5226,
      "type": "SCALAR"
    },
    {
      "bufferView": 2,
      "byteOffset": 35256,
      "componentType": 5126,
      "count": 1347,
      "max": [
        16.354900360107422,
        53.9093017578125,
        174.24099731445313
      ],
      "min": [
        -78.91020202636719,
        7.60129976272583,
        83.20999908447266
      ],
      "type": "VEC3"
    },
    {
      "bufferView": 2,
      "byteOffset": 51420,
      "componentType": 5126,
      "count": 1347,
      "max": [
        0.9999690055847168,
        0.9999690055847168,
        1.0
      ],
      "min": [
        -0.9999690055847168,
        -0.9998760223388672,
        -0.999721109867096
      ],
      "type": "VEC3"
    },
    {
      "bufferView": 1,
      "byteOffset": 11752,
      "componentType": 5126,
      "count": 1347,
      "max": [
        0.14954400062561035,
        0.11050300300121307
      ],
      "min": [
        0.08205769956111908,
        0.03998979926109314
      ],
      "type": "VEC2"
    },
    {
      "bufferView": 0,
      "byteOffset": 20904,
      "componentType": 5125,
      "count": 4770,
      "type": "SCALAR"
    }
  ],
  "asset": {
    "extras": {
      "author": "SMF Friends Fan 2024 YouTube Live (https://sketchfab.com/cherylhill28)",
      "license": "CC-BY-4.0 (http://creativecommons.org/licenses/by/4.0/)",
      "source": "https://sketchfab.com/3d-models/spongehenge-tscp-roblox-28a2f028fd03496fadbc52ca728b32a4",
      "title": "Spongehenge TSCP Roblox"
    },
    "generator": "Sketchfab-16.29.0",
    "version": "2.0"
  },
  "bufferViews": [
    {
      "buffer": 0,
      "byteLength": 39984,
      "name": "floatBufferViews",
      "target": 34963
    },
    {
      "buffer": 0,
      "byteLength": 22528,
      "byteOffset": 39984,
      "byteStride": 8,
      "name": "floatBufferViews",
      "target": 34962
    },
    {
      "buffer": 0,
      "byteLength": 67584,
      "byteOffset": 62512,
      "byteStride": 12,
      "name": "floatBufferViews",
      "target": 34962
    }
  ],
  "buffers": [
    {
      "byteLength": 130096,
      "uri": "scene.bin"
    }
  ],
  "images": [
    {
      "uri": "textures/Henge1Mtl_baseColor.png"
    },
    {
      "uri": "textures/Henge1Mtl_emissive.png"
    },
    {
      "uri": "textures/Hengeoutline1Mtl_baseColor.png"
    },
    {
      "uri": "textures/Hengeoutline1Mtl_emissive.png"
    }
  ],
  "materials": [
    {
      "alphaMode": "BLEND",
      "doubleSided": true,
      "emissiveTexture": {
        "index": 1
      },
      "name": "Henge1Mtl",
      "pbrMetallicRoughness": {
        "baseColorTexture": {
          "index": 0
        },
        "metallicFactor": 0.0
      }
    },
    {
      "alphaMode": "BLEND",
      "emissiveTexture": {
        "index": 3
      },
      "name": "Hengeoutline1Mtl",
      "pbrMetallicRoughness": {
        "baseColorTexture": {
          "index": 2
        },
        "metallicFactor": 0.0
      }
    }
  ],
  "meshes": [
    {
      "name": "Object_0",
      "primitives": [
        {
          "attributes": {
            "NORMAL": 1,
            "POSITION": 0,
            "TEXCOORD_0": 2
          },
          "indices": 3,
          "material": 0,
          "mode": 4
        }
      ]
    },
    {
      "name": "Object_1",
      "primitives": [
        {
          "attributes": {
            "NORMAL": 5,
            "POSITION": 4,
            "TEXCOORD_0": 6
          },
          "indices": 7,
          "material": 1,
          "mode": 4
        }
      ]
    }
  ],
  "nodes": [
    {
      "children": [
        1
      ],
      "matrix": [
        -1.0,
        -6.290011496532519e-32,
        2.832769343193999e-16,
        0.0,
        2.832769343193999e-16,
        -2.220446049250313e-16,
        1.0,
        0.0,
        0.0,
        1.0,
        2.220446049250313e-16,
        0.0,
        0.0,
        0.0,
        0.0,
        1.0
      ],
      "name": "Sketchfab_model"
    },
    {
      "children": [
        2,
        3
      ],
      "name": "Spongehenge_Rig.obj.cleaner.materialmerger.gles"
    },
    {
      "mesh": 0,
      "name": "Object_2"
    },
    {
      "mesh": 1,
      "name": "Object_3"
    }
  ],
  "samplers": [
    {
      "magFilter": 9729,
      "minFilter": 9987,
      "wrapS": 10497,
      "wrapT": 10497
    }
  ],
  "scene": 0,
  "scenes": [
    {
      "name": "Sketchfab_Scene",
      "nodes": [
        0
      ]
    }
  ],
  "textures": [
    {
      "sampler": 0,
      "source": 0
    },
    {
      "sampler": 0,
      "source": 1
    },
    {
      "sampler": 0,
      "source": 2
    },
    {
      "sampler": 0,
      "source": 3
    }
  ]
}
