{
	"asset":{
		"generator":"Khronos glTF Blender I/O v4.2.70",
		"version":"2.0"
	},
	"scene":0,
	"scenes":[
		{
			"name":"Scene",
			"nodes":[
				3
			]
		}
	],
	"nodes":[
		{
			"mesh":0,
			"name":"Object_2"
		},
		{
			"mesh":1,
			"name":"Object_3"
		},
		{
			"children":[
				0,
				1
			],
			"name":"Spongehenge_Rig.obj.cleaner.materialmerger.gles"
		},
		{
			"children":[
				2
			],
			"name":"Sketchfab_model",
			"rotation":[
				0,
				-0.7071068286895752,
				-0.7071068286895752,
				1.00153539642818e-16
			]
		}
	],
	"materials":[
		{
			"alphaMode":"BLEND",
			"doubleSided":true,
			"emissiveTexture":{
				"index":0
			},
			"name":"Henge1Mtl",
			"pbrMetallicRoughness":{
				"baseColorTexture":{
					"index":1
				},
				"metallicFactor":0
			}
		},
		{
			"alphaMode":"BLEND",
			"emissiveTexture":{
				"index":2
			},
			"name":"Hengeoutline1Mtl",
			"pbrMetallicRoughness":{
				"baseColorTexture":{
					"index":3
				},
				"metallicFactor":0
			}
		}
	],
	"meshes":[
		{
			"name":"Object_0.001",
			"primitives":[
				{
					"attributes":{
						"POSITION":0,
						"NORMAL":1,
						"TEXCOORD_0":2
					},
					"indices":3,
					"material":0
				}
			]
		},
		{
			"name":"Object_1.001",
			"primitives":[
				{
					"attributes":{
						"POSITION":4,
						"NORMAL":5,
						"TEXCOORD_0":6
					},
					"indices":7,
					"material":1
				}
			]
		}
	],
	"textures":[
		{
			"sampler":0,
			"source":0
		},
		{
			"sampler":0,
			"source":1
		},
		{
			"sampler":0,
			"source":2
		},
		{
			"sampler":0,
			"source":3
		}
	],
	"images":[
		{
			"mimeType":"image/png",
			"name":"Henge1Mtl_emissive",
			"uri":"textures/Henge1Mtl_emissive.png"
		},
		{
			"mimeType":"image/png",
			"name":"Henge1Mtl_baseColor",
			"uri":"textures/Henge1Mtl_baseColor.png"
		},
		{
			"mimeType":"image/png",
			"name":"Hengeoutline1Mtl_emissive",
			"uri":"textures/Hengeoutline1Mtl_emissive.png"
		},
		{
			"mimeType":"image/png",
			"name":"Hengeoutline1Mtl_baseColor",
			"uri":"textures/Hengeoutline1Mtl_baseColor.png"
		}
	],
	"accessors":[
		{
			"bufferView":0,
			"componentType":5126,
			"count":474,
			"max":[
				16.083900451660156,
				51.84292984008789,
				174.1691436767578
			],
			"min":[
				-78.69116973876953,
				7.747692584991455,
				83.06063079833984
			],
			"type":"VEC3"
		},
		{
			"bufferView":1,
			"componentType":5126,
			"count":474,
			"type":"VEC3"
		},
		{
			"bufferView":2,
			"componentType":5126,
			"count":474,
			"type":"VEC2"
		},
		{
			"bufferView":3,
			"componentType":5123,
			"count":1044,
			"type":"SCALAR"
		},
		{
			"bufferView":4,
			"componentType":5126,
			"count":1353,
			"max":[
				16.354900360107422,
				53.9093017578125,
				174.24099731445312
			],
			"min":[
				-78.91020202636719,
				7.60129976272583,
				83.20999908447266
			],
			"type":"VEC3"
		},
		{
			"bufferView":5,
			"componentType":5126,
			"count":1353,
			"type":"VEC3"
		},
		{
			"bufferView":6,
			"componentType":5126,
			"count":1353,
			"type":"VEC2"
		},
		{
			"bufferView":7,
			"componentType":5123,
			"count":4770,
			"type":"SCALAR"
		}
	],
	"bufferViews":[
		{
			"buffer":0,
			"byteLength":5688,
			"byteOffset":0,
			"target":34962
		},
		{
			"buffer":0,
			"byteLength":5688,
			"byteOffset":5688,
			"target":34962
		},
		{
			"buffer":0,
			"byteLength":3792,
			"byteOffset":11376,
			"target":34962
		},
		{
			"buffer":0,
			"byteLength":2088,
			"byteOffset":15168,
			"target":34963
		},
		{
			"buffer":0,
			"byteLength":16236,
			"byteOffset":17256,
			"target":34962
		},
		{
			"buffer":0,
			"byteLength":16236,
			"byteOffset":33492,
			"target":34962
		},
		{
			"buffer":0,
			"byteLength":10824,
			"byteOffset":49728,
			"target":34962
		},
		{
			"buffer":0,
			"byteLength":9540,
			"byteOffset":60552,
			"target":34963
		}
	],
	"samplers":[
		{
			"magFilter":9729,
			"minFilter":9987
		}
	],
	"buffers":[
		{
			"byteLength":70092,
			"uri":"scene.bin"
		}
	]
}
